<svg xmlns="http://www.w3.org/2000/svg" xmlns:xlink="http://www.w3.org/1999/xlink" xml:space="preserve" version="1.1" style="shape-rendering:geometricPrecision;text-rendering:geometricPrecision;image-rendering:optimizeQuality;" viewBox="0 0 3.037 3.037" x="0px" y="0px" fill-rule="evenodd" clip-rule="evenodd"><defs><style type="text/css">
   
    .fil0 {fill:black}
   
  </style></defs><g><path class="fil0" d="M1.932 0l0.184 0.184c-0.076,0.076 -0.076,0.2 0,0.276 0.077,0.076 0.2,0.076 0.277,0l0.184 0.184c-0.077,0.076 -0.077,0.2 0,0.276 0.076,0.076 0.199,0.076 0.276,0l0.184 0.184 -1.933 1.933 -0.184 -0.184c0.076,-0.077 0.076,-0.2 0,-0.276 -0.076,-0.077 -0.2,-0.077 -0.276,0l-0.184 -0.184c0.076,-0.077 0.076,-0.2 0,-0.277 -0.076,-0.076 -0.2,-0.076 -0.276,0l-0.184 -0.184 1.932 -1.932zm-0.11 0.663l0.552 0.552 -1.159 1.159 -0.552 -0.552 1.159 -1.159z"></path></g></svg>