<svg xmlns="http://www.w3.org/2000/svg" xmlns:xlink="http://www.w3.org/1999/xlink" version="1.1" x="0px" y="0px" viewBox="0 0 72 72" style="enable-background:new 0 0 72 72;" xml:space="preserve"><g><polygon points="18.3,32 22.3,29.5 34.5,40.7 25.3,49.2  "></polygon><path d="M67,6.5c0,0.5-0.4,1-1,1h-7.1v11.4c1.1,0.7,1.4,2.1,0.8,3.2l-2.4,3.9l-3.9-2.4l2.4-3.9c0.3-0.4,0.7-0.7,1.1-0.9V7.5H15.1   v11.2c0.4,0.2,0.8,0.5,1.1,0.9l2.4,3.9l-3.9,2.4L12.3,22c-0.7-1.1-0.3-2.5,0.8-3.2V7.5H6c-0.6,0-1-0.5-1-1c0-0.6,0.4-1,1-1h60   C66.6,5.5,67,5.9,67,6.5z"></path><polygon points="20,25 22.8,26.8 15.9,31.1 15.5,27.8  "></polygon><polygon points="56.1,31.1 49.2,26.8 52,25 56.5,27.8  "></polygon><path d="M47.5,52.6l11.9,10.9c-4.6,2.7-12.7,3.7-19.8,2.6c0.6-0.3,3-1.4,3.2-2.1L47.5,52.6z"></path><path d="M41.1,63c-6.6,4.6-21.3,4.7-28.5,0.5c12.4-11.3,26.5-24.2,37.1-34l4,2.5C48.5,44.8,45.6,51.9,41.1,63z"></path></g></svg>