<svg xmlns="http://www.w3.org/2000/svg" xmlns:xlink="http://www.w3.org/1999/xlink" version="1.1" x="0px" y="0px" viewBox="0 0 32 32" enable-background="new 0 0 32 32" xml:space="preserve"><g><path d="M26.5,11.42h-7.67V6.58h3c0.28,0,0.5-0.22,0.5-0.5v-3.5c0-0.27-0.22-0.5-0.5-0.5H10.17c-0.28,0-0.5,0.23-0.5,0.5v3.5   c0,0.28,0.22,0.5,0.5,0.5h3v4.84H5.5c-0.28,0-0.5,0.22-0.5,0.5v17.5c0,0.27,0.22,0.5,0.5,0.5h21c0.28,0,0.5-0.23,0.5-0.5v-17.5   C27,11.64,26.78,11.42,26.5,11.42z M10.83,20.08v-3.5c0-0.27,0.23-0.5,0.5-0.5h9.34c0.27,0,0.5,0.23,0.5,0.5v3.5   c0,0.28-0.23,0.5-0.5,0.5h-9.34C11.06,20.58,10.83,20.36,10.83,20.08z"></path></g></svg>