<svg xmlns="http://www.w3.org/2000/svg" viewBox="0 0 512 512" x="0px" y="0px"><g data-name="Out line"><rect x="240" y="448" width="16" height="16"></rect><rect x="272" y="448" width="16" height="16"></rect><path d="M40,400H170.31726l18.006,26.40869A34.28016,34.28016,0,0,1,160,480a8,8,0,0,0,0,16H280a50.28035,50.28035,0,0,0,41.543-78.605L309.68262,400H392a24.02687,24.02687,0,0,0,24-24V272H400V376a8.00917,8.00917,0,0,1-8,8h-9.37622A23.88212,23.88212,0,0,0,384,376V272H368V376a8.00917,8.00917,0,0,1-8,8H40a8.00917,8.00917,0,0,1-8-8V136a8.00917,8.00917,0,0,1,8-8H232V112H40a24.0275,24.0275,0,0,0-24,24V376A24.0275,24.0275,0,0,0,40,400Zm214.60938,6.35059q.18237.33984.39648.66162A5.78107,5.78107,0,0,1,250.19531,416a18.58655,18.58655,0,0,1-15.39648-8.14453L230.10291,400h21.10595ZM211.46173,400l9.71356,16.249c.06739.11231.1377.22364.21045.33252A34.55538,34.55538,0,0,0,250.19531,432a21.77415,21.77415,0,0,0,19.22827-32h20.8938l18.00586,26.40869A34.28016,34.28016,0,0,1,280,480H196.877a51.64032,51.64032,0,0,0,7.57666-10.78613A52.80037,52.80037,0,0,0,206.85254,464H232V448H210.34741a49.79047,49.79047,0,0,0-8.80444-30.605L189.68262,400Z"></path><path d="M72,160H216V144H72a24.02687,24.02687,0,0,0-24,24V344a24.02687,24.02687,0,0,0,24,24H328a24.02687,24.02687,0,0,0,24-24V272H336v72a8.00917,8.00917,0,0,1-8,8H72a8.00917,8.00917,0,0,1-8-8V168A8.00917,8.00917,0,0,1,72,160Z"></path><path d="M198.34668,244.30176A23.33274,23.33274,0,0,0,218.70312,256H469.29834a23.56,23.56,0,0,0,20.49756-35.17578L380.49756,27.94531A23.29634,23.29634,0,0,0,360,16H328v.002a23.295,23.295,0,0,0-20.498,11.94483L198.20508,220.82324A23.333,23.333,0,0,0,198.34668,244.30176ZM366.57764,35.834,475.876,228.7124A7.56069,7.56069,0,0,1,469.29834,240h-9.67407a23.29843,23.29843,0,0,0-1.82935-19.17676L350.79517,32H360A7.42039,7.42039,0,0,1,366.57764,35.834ZM212.125,228.71143l109.29688-192.876.00048-.00049a7.56046,7.56046,0,0,1,13.15576.00049L443.875,228.71191A7.56051,7.56051,0,0,1,437.29688,240H218.70312a7.56075,7.56075,0,0,1-6.57812-11.28857Z"></path><path d="M328,224a24,24,0,1,0-24-24A24.02687,24.02687,0,0,0,328,224Zm0-32a8,8,0,1,1-8,8A8.00917,8.00917,0,0,1,328,192Z"></path><path d="M312.08057,153.13135A7.99944,7.99944,0,0,0,320,160h16a7.99944,7.99944,0,0,0,7.91943-6.86865l8-56A7.9999,7.9999,0,0,0,344,88H312a7.9999,7.9999,0,0,0-7.91943,9.13135ZM334.77588,104l-5.71436,40h-2.123l-5.71436-40Z"></path></g></svg>