<svg xmlns="http://www.w3.org/2000/svg" xmlns:xlink="http://www.w3.org/1999/xlink" version="1.1" x="0px" y="0px" viewBox="0 0 50 50" style="enable-background:new 0 0 50 50;" xml:space="preserve"><path d="M39.4,21.5L39.4,21.5l0-7.1c0-3.8-1.5-7.4-4.2-10.1S28.8,0,25,0c-3.8,0-7.4,1.5-10.2,4.2c-2.7,2.7-4.2,6.3-4.2,10.1v7.1H6  V50h38V21.5H39.4z M26.4,35.9L26.4,35.9l0,5.7h-2.9v-5.7h0.1c-1-0.5-1.7-1.6-1.7-2.8c0-1.7,1.4-3.1,3.1-3.1c1.7,0,3.1,1.4,3.1,3.1  C28.1,34.3,27.4,35.4,26.4,35.9z M15.6,21.5v-7.1c0-2.5,1-4.9,2.8-6.7c1.8-1.8,4.1-2.8,6.7-2.8s4.9,1,6.7,2.8  c1.8,1.8,2.8,4.1,2.8,6.7v7.1H15.6z"></path></svg>