<svg xmlns="http://www.w3.org/2000/svg" xmlns:xlink="http://www.w3.org/1999/xlink" xml:space="preserve" version="1.1" style="shape-rendering:geometricPrecision;text-rendering:geometricPrecision;image-rendering:optimizeQuality;" viewBox="0 0 100000 100000" x="0px" y="0px" fill-rule="evenodd" clip-rule="evenodd"><defs><style type="text/css">
   
    .fil0 {fill:black}
   
  </style></defs><g><path class="fil0" d="M67574 3138c-16177,0 -29289,13113 -29289,29288 0,1832 217,3594 539,5320l-35686 35685 0 23432 35147 -1 0 -11716 11715 0 0 -11715 11715 0 0 -11714 539 -540c1724,322 3488,540 5320,540 16175,0 29288,-13113 29288,-29290 0,-16176 -13113,-29288 -29288,-29288l0 -1zm22 35147c-3236,0 -5858,-2621 -5858,-5859 0,-3236 2622,-5857 5858,-5857 3238,0 5859,2621 5859,5857 0,3238 -2621,5859 -5859,5859z"></path></g></svg>