<svg xmlns="http://www.w3.org/2000/svg" xmlns:xlink="http://www.w3.org/1999/xlink" version="1.1" x="0px" y="0px" viewBox="0 0 1024 1024" style="enable-background:new 0 0 1024 1024;" xml:space="preserve"><g><g><g><path d="M472.5,732.3c26.4,0,52.7,0,79.1,0c5.4,0,10-4.6,10-10c0-26.4,0-52.7,0-79.1c0-5.4-4.6-10-10-10     c-26.4,0-52.7,0-79.1,0c-5.4,0-10,4.6-10,10c0,26.4,0,52.7,0,79.1c0,12.9,20,12.9,20,0c0-26.4,0-52.7,0-79.1     c-3.3,3.3-6.7,6.7-10,10c26.4,0,52.7,0,79.1,0c-3.3-3.3-6.7-6.7-10-10c0,26.4,0,52.7,0,79.1c3.3-3.3,6.7-6.7,10-10     c-26.4,0-52.7,0-79.1,0C459.6,712.3,459.6,732.3,472.5,732.3z"></path></g></g><g><g><path d="M472.5,574.6c26.4,0,52.7,0,79.1,0c5.4,0,10-4.6,10-10c0-29.6,0-59.2,0-88.7c0-47.2,0-94.4,0-141.5     c0-10.9,0-21.8,0-32.6c0-5.4-4.6-10-10-10c-26.4,0-52.7,0-79.1,0c-5.4,0-10,4.6-10,10c0,29.6,0,59.2,0,88.7     c0,47.2,0,94.4,0,141.5c0,10.9,0,21.8,0,32.6c0,12.9,20,12.9,20,0c0-29.6,0-59.2,0-88.7c0-47.2,0-94.4,0-141.5     c0-10.9,0-21.8,0-32.6c-3.3,3.3-6.7,6.7-10,10c26.4,0,52.7,0,79.1,0c-3.3-3.3-6.7-6.7-10-10c0,29.6,0,59.2,0,88.7     c0,47.2,0,94.4,0,141.5c0,10.9,0,21.8,0,32.6c3.3-3.3,6.7-6.7,10-10c-26.4,0-52.7,0-79.1,0C459.6,554.6,459.6,574.6,472.5,574.6z     "></path></g></g></g><g><g><path d="M941.5,512c-0.1,89.1-27.9,176.5-79.6,249.2C812.1,831.3,740.5,886,659.6,915.5    c-85,30.9-178.9,34.4-265.9,9.5c-83.3-23.8-158-73.2-213.2-139.8c-55.9-67.4-90.1-152.2-96.7-239.6c-6.8-89.5,14.3-179.7,61-256.4    c45-74.1,112.3-133.4,191.2-169.1C417.1,83.3,510.1,73.2,597.4,91c85.7,17.4,164.7,61.2,225.1,124.3    c60.6,63.4,100.6,144.7,114.1,231.4C940,468.3,941.4,490.2,941.5,512c0,12.9,20,12.9,20,0c-0.1-46.9-7.3-93.8-21.7-138.4    c-14-43.2-34.6-84.4-61-121.4c-26.3-36.9-57.9-69.6-93.8-97.2c-36-27.7-76.2-49.6-118.8-65.3c-43.7-16.1-90.1-25-136.6-26.8    c-47.3-1.9-95,3.8-140.5,16.7c-43.6,12.4-85.4,31.5-123.3,56.4c-37.6,24.7-71.6,55-100.2,89.8c-29,35.2-52.4,74.4-69.8,116.6    c-17.7,43.1-28.3,89-31.9,135.4c-3.6,47.1,0.3,95,11.4,140.9c10.8,44.4,28.5,87.2,52.2,126.3c23.2,38.3,52.3,73.2,85.8,102.9    c33.8,30,72,55.1,113.2,73.7c42.6,19.2,87.6,31.6,134,37c47.1,5.5,95.1,3.3,141.6-6.1c45-9.1,88.5-25.3,128.6-47.6    c39.1-21.8,75.1-49.6,106.1-82c31.2-32.6,57.6-69.9,77.7-110.3c20.4-41.1,34.7-85.3,41.7-130.6c3.6-23.1,5.4-46.5,5.5-69.9    C961.5,499.1,941.5,499.1,941.5,512z"></path></g></g></svg>