<svg xmlns="http://www.w3.org/2000/svg" xmlns:xlink="http://www.w3.org/1999/xlink" version="1.1" x="0px" y="0px" viewBox="0 0 512 512" style="enable-background:new 0 0 512 512;" xml:space="preserve"><style type="text/css">
	.st0{clip-path:url(#h);}
	.st1{clip-path:url(#g);}
	.st2{clip-path:url(#f);}
	.st3{clip-path:url(#e);}
</style><g><defs><rect id="d" width="512" height="512"></rect></defs><clipPath id="h"><use xlink:href="#d" style="" overflow="visible"></use></clipPath><path class="st0" d="M90.66,488V24h210.71l0.38,103.31c0.01,2.31,1.02,4.5,2.77,6.02c1.46,1.26,3.32,1.94,5.23,1.94   c0.38,0,0.75-0.02,1.13-0.08l110.46-15.76V488H90.66z M410.52,104.82l-92.81,13.24l-0.31-85.66L410.52,104.82z M314.26,9.69   c-0.34-0.27-0.77-0.42-1.15-0.62c-0.31-0.17-0.58-0.36-0.9-0.49C311.29,8.22,310.34,8,309.34,8h-0.02H82.66c-4.42,0-8,3.58-8,8v480   c0,4.42,3.58,8,8,8h346.68c4.42,0,8-3.58,8-8V109.33c0-2.47-1.14-4.8-3.09-6.31L314.26,9.69z"></path></g><g><defs><rect id="c" width="512" height="512"></rect></defs><clipPath id="g"><use xlink:href="#c" style="" overflow="visible"></use></clipPath><path class="st1" d="M190.86,249.28c10.84,0,19.66-8.82,19.66-19.66c0-10.84-8.82-19.67-19.66-19.67   c-10.85,0-19.67,8.83-19.67,19.67S180.01,249.28,190.86,249.28z"></path></g><g><defs><rect id="b" width="512" height="512"></rect></defs><clipPath id="f"><use xlink:href="#b" style="" overflow="visible"></use></clipPath><path class="st2" d="M324.18,249.28c10.84,0,19.66-8.82,19.66-19.66c0-10.84-8.82-19.67-19.66-19.67   c-10.86,0-19.69,8.83-19.69,19.67S313.34,249.28,324.18,249.28z"></path></g><g><defs><rect id="a" width="512" height="512"></rect></defs><clipPath id="e"><use xlink:href="#a" style="" overflow="visible"></use></clipPath><path class="st3" d="M257.52,300.78c-56.79,0-103,46.2-103,103c0,4.42,3.58,8,8,8s8-3.58,8-8c0-47.97,39.02-87,87-87   c47.96,0,86.98,39.03,86.98,87c0,4.42,3.58,8,8,8s8-3.58,8-8C360.5,346.98,314.3,300.78,257.52,300.78z"></path></g></svg>