<svg xmlns="http://www.w3.org/2000/svg" xmlns:xlink="http://www.w3.org/1999/xlink" version="1.1" x="0px" y="0px" viewBox="0 0 90 90" style="enable-background:new 0 0 90 90;" xml:space="preserve"><path d="M79.7,35.2H39.8C36.4,28.8,29.7,24.5,22,24.5c-11.2,0-20.2,9-20.2,20.2s9,20.2,20.2,20.2c8.4,0,15.6-5.1,18.6-12.4h2.6  l3.7-2.4l4,3.1l3.6-4.1l3.3,1.6l3.2-2.9l4.8,3.1l3.1-2.1l3.8,1.3l3.3-2.2l3.2,1.9l7.9-6.9L79.7,35.2z M13.1,49.8  c-2.8,0-5.1-2.3-5.1-5.1c0-2.8,2.3-5.1,5.1-5.1s5.1,2.3,5.1,5.1C18.2,47.5,15.9,49.8,13.1,49.8z"></path></svg>