<svg xmlns="http://www.w3.org/2000/svg" xmlns:xlink="http://www.w3.org/1999/xlink" version="1.1" x="0px" y="0px" viewBox="0 0 55 55" style="enable-background:new 0 0 55 55;" xml:space="preserve"><g><g><path d="M27.5,52C13.9907227,52,3,41.0097656,3,27.5S13.9907227,3,27.5,3S52,13.9902344,52,27.5S41.0092773,52,27.5,52z M27.5,4    C14.5419922,4,4,14.5419922,4,27.5S14.5419922,51,27.5,51S51,40.4580078,51,27.5S40.4580078,4,27.5,4z"></path></g><g><g><path d="M29.1875,35.4794922h-3.2397461c-0.2636719,0-0.4819336-0.2050781-0.4990234-0.4677734l-1.3144531-20.40625     c-0.0605469-0.9404297,0.2612305-1.8369141,0.9057617-2.5244141c1.2856445-1.3710938,3.621582-1.375,4.9116211-0.0078125     c0.644043,0.6816406,0.96875,1.5732422,0.9145508,2.5097656l-1.1796875,20.4257813     C29.6713867,35.2724609,29.4526367,35.4794922,29.1875,35.4794922z M26.4165039,34.4794922h2.2988281l1.152832-19.9550781     c0.0380859-0.6582031-0.1904297-1.2851563-0.6435547-1.7646484c-0.9067383-0.9628906-2.550293-0.9580078-3.4550781,0.0048828     c-0.4536133,0.484375-0.6796875,1.1152344-0.637207,1.7763672L26.4165039,34.4794922z"></path></g><g><path d="M27.5,43.984375c-1.6157227,0-2.9301758-1.3144531-2.9301758-2.9296875     c0-1.6162109,1.3144531-2.9306641,2.9301758-2.9306641c1.6152344,0,2.9296875,1.3144531,2.9296875,2.9306641     C30.4296875,42.6699219,29.1152344,43.984375,27.5,43.984375z M27.5,39.1240234     c-1.0644531,0-1.9301758,0.8662109-1.9301758,1.9306641S26.4355469,42.984375,27.5,42.984375     c1.0639648,0,1.9296875-0.8652344,1.9296875-1.9296875S28.5639648,39.1240234,27.5,39.1240234z"></path></g></g></g></svg>