<svg xmlns="http://www.w3.org/2000/svg" xmlns:xlink="http://www.w3.org/1999/xlink" version="1.1" x="0px" y="0px" viewBox="0 0 100 100" enable-background="new 0 0 100 100" xml:space="preserve"><g><path d="M70.747,42.219h-0.31v-7.75C70.438,23.2,61.27,14.031,50,14.031c-11.269,0-20.438,9.168-20.438,20.438v7.75h-0.31   c-2.414,0-4.378,1.923-4.378,4.286v35.178c0,2.363,1.964,4.286,4.378,4.286h41.494c2.414,0,4.378-1.923,4.378-4.286V46.505   C75.125,44.142,73.161,42.219,70.747,42.219z M32.563,34.469c0-9.615,7.822-17.438,17.438-17.438s17.438,7.822,17.438,17.438v7.75   H32.563V34.469z M72.125,81.683c0,0.709-0.618,1.286-1.378,1.286H29.253c-0.76,0-1.378-0.577-1.378-1.286V46.505   c0-0.709,0.618-1.286,1.378-1.286h41.494c0.76,0,1.378,0.577,1.378,1.286V81.683z"></path><path d="M50,58.094c-2.002,0-3.625,1.623-3.625,3.625c0,1.262,0.646,2.371,1.625,3.021v3.354c0,1.104,0.896,2,2,2s2-0.896,2-2   v-3.354c0.979-0.649,1.625-1.759,1.625-3.021C53.625,59.717,52.002,58.094,50,58.094z"></path></g></svg>