<?xml version="1.0" encoding="UTF-8"?>
<svg width="700pt" height="700pt" version="1.1" viewBox="0 0 700 700" xmlns="http://www.w3.org/2000/svg" xmlns:xlink="http://www.w3.org/1999/xlink">
 <defs>
  <symbol id="l" overflow="visible">
   <path d="m29.312-1.75c-1.5117 0.78125-3.0898 1.3711-4.7344 1.7656-1.6367 0.40625-3.3398 0.60938-5.1094 0.60938-5.3125 0-9.5273-1.4844-12.641-4.4531-3.1055-2.9688-4.6562-7-4.6562-12.094s1.5508-9.125 4.6562-12.094c3.1133-2.9688 7.3281-4.4531 12.641-4.4531 1.7695 0 3.4727 0.19922 5.1094 0.59375 1.6445 0.39844 3.2227 0.99219 4.7344 1.7812v6.5938c-1.5312-1.0391-3.0391-1.8008-4.5156-2.2812-1.4805-0.48828-3.0391-0.73438-4.6719-0.73438-2.9375 0-5.2461 0.94531-6.9219 2.8281-1.6797 1.875-2.5156 4.4648-2.5156 7.7656 0 3.293 0.83594 5.8828 2.5156 7.7656 1.6758 1.875 3.9844 2.8125 6.9219 2.8125 1.6328 0 3.1914-0.23828 4.6719-0.71875 1.4766-0.48828 2.9844-1.2539 4.5156-2.2969z"/>
  </symbol>
  <symbol id="i" overflow="visible">
   <path d="m21.453-17.406c-0.67969-0.3125-1.3516-0.53906-2.0156-0.6875-0.65625-0.15625-1.3203-0.23438-1.9844-0.23438-1.9688 0-3.4844 0.63281-4.5469 1.8906-1.0547 1.2617-1.5781 3.0703-1.5781 5.4219v11.016h-7.6562v-23.922h7.6562v3.9219c0.97656-1.5625 2.1016-2.7031 3.375-3.4219 1.2812-0.71875 2.8125-1.0781 4.5938-1.0781 0.25 0 0.52344 0.011719 0.82812 0.03125 0.30078 0.023438 0.73438 0.070312 1.2969 0.14062z"/>
  </symbol>
  <symbol id="c" overflow="visible">
   <path d="m27.562-12.031v2.1875h-17.891c0.1875 1.793 0.83203 3.1367 1.9375 4.0312 1.1133 0.89844 2.6719 1.3438 4.6719 1.3438 1.6016 0 3.25-0.23438 4.9375-0.70312 1.6875-0.47656 3.4219-1.2031 5.2031-2.1719v5.8906c-1.8047 0.6875-3.6094 1.2031-5.4219 1.5469-1.8125 0.35156-3.6211 0.53125-5.4219 0.53125-4.3359 0-7.7031-1.0977-10.109-3.2969-2.3984-2.207-3.5938-5.2969-3.5938-9.2656 0-3.9062 1.1758-6.9727 3.5312-9.2031 2.3633-2.2383 5.6094-3.3594 9.7344-3.3594 3.7578 0 6.7695 1.1367 9.0312 3.4062 2.2578 2.2617 3.3906 5.2812 3.3906 9.0625zm-7.8594-2.5312c0-1.457-0.42969-2.6289-1.2812-3.5156-0.84375-0.89453-1.9492-1.3438-3.3125-1.3438-1.4922 0-2.6992 0.41797-3.625 1.25-0.91797 0.83594-1.4922 2.0391-1.7188 3.6094z"/>
  </symbol>
  <symbol id="b" overflow="visible">
   <path d="m14.391-10.766c-1.5938 0-2.793 0.27344-3.5938 0.8125-0.80469 0.54297-1.2031 1.3398-1.2031 2.3906 0 0.96875 0.32031 1.7305 0.96875 2.2812 0.64453 0.54297 1.5469 0.8125 2.7031 0.8125 1.4375 0 2.6445-0.51562 3.625-1.5469 0.98828-1.0312 1.4844-2.3203 1.4844-3.875v-0.875zm11.688-2.8906v13.656h-7.7031v-3.5469c-1.0312 1.4492-2.1875 2.5078-3.4688 3.1719s-2.8398 1-4.6719 1c-2.4805 0-4.4961-0.72266-6.0469-2.1719-1.543-1.4453-2.3125-3.3203-2.3125-5.625 0-2.8125 0.96094-4.8672 2.8906-6.1719 1.9375-1.3125 4.9688-1.9688 9.0938-1.9688h4.5156v-0.60938c0-1.207-0.48047-2.0938-1.4375-2.6562-0.94922-0.5625-2.4375-0.84375-4.4688-0.84375-1.6367 0-3.1562 0.16797-4.5625 0.5-1.4062 0.32422-2.7188 0.8125-3.9375 1.4688v-5.8281c1.6445-0.40625 3.2891-0.70703 4.9375-0.90625 1.6562-0.20703 3.3047-0.3125 4.9531-0.3125 4.3203 0 7.4375 0.85547 9.3438 2.5625 1.9141 1.6992 2.875 4.4609 2.875 8.2812z"/>
  </symbol>
  <symbol id="h" overflow="visible">
   <path d="m12.031-30.719v6.7969h7.875v5.4688h-7.875v10.141c0 1.1172 0.21875 1.8711 0.65625 2.2656 0.4375 0.38672 1.3125 0.57812 2.625 0.57812h3.9375v5.4688h-6.5625c-3.0234 0-5.1641-0.62891-6.4219-1.8906-1.2617-1.2578-1.8906-3.3984-1.8906-6.4219v-10.141h-3.7969v-5.4688h3.7969v-6.7969z"/>
  </symbol>
  <symbol id="g" overflow="visible">
   <path d="m19.953-20.422v-12.812h7.6875v33.234h-7.6875v-3.4531c-1.0547 1.4062-2.2148 2.4375-3.4844 3.0938-1.2734 0.65625-2.7422 0.98438-4.4062 0.98438-2.9492 0-5.3711-1.1719-7.2656-3.5156-1.8867-2.3438-2.8281-5.3594-2.8281-9.0469s0.94141-6.7031 2.8281-9.0469c1.8945-2.3438 4.3164-3.5156 7.2656-3.5156 1.6562 0 3.1172 0.33594 4.3906 1 1.2812 0.65625 2.4453 1.6836 3.5 3.0781zm-5.0469 15.484c1.6445 0 2.8945-0.59766 3.75-1.7969 0.86328-1.1953 1.2969-2.9297 1.2969-5.2031 0-2.2812-0.43359-4.0195-1.2969-5.2188-0.85547-1.1953-2.1055-1.7969-3.75-1.7969-1.625 0-2.8711 0.60156-3.7344 1.7969-0.85547 1.1992-1.2812 2.9375-1.2812 5.2188 0 2.2734 0.42578 4.0078 1.2812 5.2031 0.86328 1.1992 2.1094 1.7969 3.7344 1.7969z"/>
  </symbol>
  <symbol id="f" overflow="visible">
   <path d="m16.406-4.9375c1.6328 0 2.8828-0.59766 3.75-1.7969 0.86328-1.1953 1.2969-2.9297 1.2969-5.2031 0-2.2812-0.43359-4.0195-1.2969-5.2188-0.86719-1.1953-2.1172-1.7969-3.75-1.7969-1.6367 0-2.8906 0.60547-3.7656 1.8125-0.875 1.1992-1.3125 2.9336-1.3125 5.2031 0 2.2617 0.4375 3.9961 1.3125 5.2031 0.875 1.1992 2.1289 1.7969 3.7656 1.7969zm-5.0781-15.484c1.0508-1.3945 2.2188-2.4219 3.5-3.0781 1.2812-0.66406 2.7539-1 4.4219-1 2.9453 0 5.3672 1.1719 7.2656 3.5156 1.8945 2.3438 2.8438 5.3594 2.8438 9.0469s-0.94922 6.7031-2.8438 9.0469c-1.8984 2.3438-4.3203 3.5156-7.2656 3.5156-1.668 0-3.1406-0.33594-4.4219-1s-2.4492-1.6914-3.5-3.0781v3.4531h-7.6562v-33.234h7.6562z"/>
  </symbol>
  <symbol id="e" overflow="visible">
   <path d="m0.53125-23.922h7.6562l6.4219 16.234 5.4688-16.234h7.6562l-10.062 26.188c-1.0117 2.6641-2.1953 4.5234-3.5469 5.5781-1.3438 1.0625-3.1211 1.5938-5.3281 1.5938h-4.4219v-5.0156h2.3906c1.3008 0 2.2422-0.21094 2.8281-0.625 0.59375-0.40625 1.0547-1.1484 1.3906-2.2188l0.20312-0.65625z"/>
  </symbol>
  <symbol id="a" overflow="visible">
   <path d="m4.0156-31.891h8.2188v11.641l11.859-11.641h9.5469l-15.359 15.094 16.938 16.797h-10.281l-12.703-12.562v12.562h-8.2188z"/>
  </symbol>
  <symbol id="k" overflow="visible">
   <path d="m15.062-19.031c-1.6992 0-2.9961 0.60938-3.8906 1.8281-0.88672 1.2188-1.3281 2.9766-1.3281 5.2656 0 2.293 0.44141 4.0469 1.3281 5.2656 0.89453 1.2188 2.1914 1.8281 3.8906 1.8281 1.6641 0 2.9375-0.60938 3.8125-1.8281 0.88281-1.2188 1.3281-2.9727 1.3281-5.2656 0-2.2891-0.44531-4.0469-1.3281-5.2656-0.875-1.2188-2.1484-1.8281-3.8125-1.8281zm0-5.4688c4.1133 0 7.3281 1.1094 9.6406 3.3281s3.4688 5.2969 3.4688 9.2344c0 3.9297-1.1562 7.0078-3.4688 9.2344-2.3125 2.2188-5.5273 3.3281-9.6406 3.3281-4.1367 0-7.3711-1.1094-9.7031-3.3281-2.3242-2.2266-3.4844-5.3047-3.4844-9.2344 0-3.9375 1.1602-7.0156 3.4844-9.2344 2.332-2.2188 5.5664-3.3281 9.7031-3.3281z"/>
  </symbol>
  <symbol id="j" overflow="visible">
   <path d="m27.734-14.562v14.562h-7.7031v-11.156c0-2.0625-0.046875-3.4844-0.14062-4.2656-0.085937-0.78125-0.24219-1.3594-0.46875-1.7344-0.30469-0.5-0.71094-0.88281-1.2188-1.1562-0.51172-0.28125-1.0938-0.42188-1.75-0.42188-1.5938 0-2.8516 0.61719-3.7656 1.8438-0.90625 1.2305-1.3594 2.9375-1.3594 5.125v11.766h-7.6562v-23.922h7.6562v3.5c1.1445-1.3945 2.3633-2.4219 3.6562-3.0781 1.3008-0.66406 2.7383-1 4.3125-1 2.7578 0 4.8516 0.85156 6.2812 2.5469 1.4375 1.6875 2.1562 4.1523 2.1562 7.3906z"/>
  </symbol>
  <symbol id="d" overflow="visible">
   <path d="m11.328-3.4531v12.547h-7.6562v-33.016h7.6562v3.5c1.0508-1.3945 2.2188-2.4219 3.5-3.0781 1.2812-0.66406 2.7539-1 4.4219-1 2.9453 0 5.3672 1.1719 7.2656 3.5156 1.8945 2.3438 2.8438 5.3594 2.8438 9.0469s-0.94922 6.7031-2.8438 9.0469c-1.8984 2.3438-4.3203 3.5156-7.2656 3.5156-1.668 0-3.1406-0.33594-4.4219-1s-2.4492-1.6914-3.5-3.0781zm5.0781-15.5c-1.6367 0-2.8906 0.60547-3.7656 1.8125-0.875 1.1992-1.3125 2.9336-1.3125 5.2031 0 2.2617 0.4375 3.9961 1.3125 5.2031 0.875 1.1992 2.1289 1.7969 3.7656 1.7969 1.6328 0 2.8828-0.59766 3.75-1.7969 0.86328-1.1953 1.2969-2.9297 1.2969-5.2031 0-2.2812-0.43359-4.0195-1.2969-5.2188-0.86719-1.1953-2.1172-1.7969-3.75-1.7969z"/>
  </symbol>
 </defs>
 <g>
  <path d="m433.84 166.79c-2.1758 0.92578-3.8828 2.6914-4.7344 4.8984-0.85156 2.207-0.77344 4.6602 0.21484 6.8086 0.98828 2.1484 2.8047 3.8047 5.0352 4.5898 2.2266 0.78906 4.6797 0.64062 6.7969-0.41016l42.465-19.539 53.242 53.242-11.48 24.965 0.003907 0.003906c-2.0195 4.3867-0.10156 9.5781 4.2852 11.602 1.1445 0.53125 2.3945 0.80859 3.6562 0.80469 3.418 0 6.5195-1.9883 7.9453-5.0938l13.379-29.031 42.211-42.203c13.082-13.297 18.129-32.539 13.25-50.543-4.875-18.008-18.941-32.07-36.949-36.949-18.004-4.875-37.246 0.16797-50.543 13.25l-42.203 42.211z"/>
  <path d="m145.35 219.62 13.379 29.078c1.4258 3.1016 4.5273 5.0898 7.9453 5.0898 1.2617 0.003906 2.5117-0.27344 3.6562-0.80469 4.3867-2.0195 6.3047-7.2148 4.2852-11.602l-11.48-24.965 53.242-53.242 43.059 19.809h0.003906c2.1172 1.0508 4.5703 1.1992 6.8008 0.41016 2.2266-0.78906 4.043-2.4453 5.0312-4.5898 0.98828-2.1484 1.0664-4.6055 0.21484-6.8086-0.85156-2.207-2.5586-3.9727-4.7305-4.9023l-47.129-21.75-42.203-42.211c-13.297-13.082-32.539-18.129-50.543-13.25-18.008 4.875-32.07 18.941-36.949 36.949-4.875 18.004 0.16797 37.246 13.25 50.543z"/>
  <path d="m249.54 259.46c-0.80859 2.1758-0.71484 4.582 0.25391 6.6914 0.97266 2.1094 2.7383 3.7461 4.9141 4.5508 4.5352 1.6758 9.5703-0.63672 11.246-5.1719l46.418-125.54h75.25l62.562 169.29c1.6758 4.5352 6.7109 6.8477 11.242 5.1719 4.5352-1.6758 6.8516-6.7109 5.1719-11.242l-64.102-173.53v-59.684c0-18.758-10.008-36.09-26.25-45.465-16.242-9.3789-36.258-9.3789-52.5 0-16.242 9.375-26.25 26.707-26.25 45.465v59.684z"/>
  <path d="m603.75 420c4.832 0 8.75-3.918 8.75-8.75s-3.918-8.75-8.75-8.75h-61.25v-52.5h61.25c4.832 0 8.75-3.918 8.75-8.75s-3.918-8.75-8.75-8.75h-61.25v-61.25c0-4.832-3.918-8.75-8.75-8.75s-8.75 3.918-8.75 8.75v61.25h-113.75c-4.832 0-8.75 3.918-8.75 8.75s3.918 8.75 8.75 8.75h35v52.5h-26.25c-4.832 0-8.75 3.918-8.75 8.75s3.918 8.75 8.75 8.75h29.234l18.75 43.75h-66.648l-3.9297-27.492c-0.26953-2.3477-1.4805-4.4805-3.3516-5.9219-1.8711-1.4414-4.2461-2.0664-6.582-1.7305-2.3359 0.33594-4.4414 1.6016-5.832 3.5117-1.3867 1.9062-1.9492 4.2969-1.5508 6.625l3.5703 25.008h-67.32l6.2461-43.75h27.414c4.832 0 8.75-3.918 8.75-8.75s-3.918-8.75-8.75-8.75h-26.25v-52.5h35c4.832 0 8.75-3.918 8.75-8.75s-3.918-8.75-8.75-8.75h-35v-61.25c0-4.832-3.918-8.75-8.75-8.75s-8.75 3.918-8.75 8.75v61.25h-26.25c-4.832 0-8.75 3.918-8.75 8.75s3.918 8.75 8.75 8.75h26.25v52.5h-52.5v-35c0-4.832-3.918-8.75-8.75-8.75s-8.75 3.918-8.75 8.75v35h-61.25v-52.5h35c4.832 0 8.75-3.918 8.75-8.75s-3.918-8.75-8.75-8.75h-35v-61.25c0-4.832-3.918-8.75-8.75-8.75s-8.75 3.918-8.75 8.75v61.25h-61.25c-4.832 0-8.75 3.918-8.75 8.75s3.918 8.75 8.75 8.75h61.25v52.5h-61.25c-4.832 0-8.75 3.918-8.75 8.75s3.918 8.75 8.75 8.75h54.922l-24.996 43.75h-29.926c-4.832 0-8.75 3.918-8.75 8.75s3.918 8.75 8.75 8.75h19.922l-27.516 48.125c-1.1641 2.0117-1.4805 4.4062-0.875 6.6523 0.60156 2.2461 2.0781 4.1602 4.0938 5.3164 1.3281 0.76953 2.8398 1.168 4.375 1.1562 3.1367 0.007812 6.0352-1.6602 7.6055-4.375l32.469-56.875h69.125l-21 49.051c-1.9023 4.4414 0.15234 9.5859 4.5938 11.492 1.0898 0.47266 2.2695 0.71484 3.457 0.70703 3.5 0 6.6641-2.0859 8.043-5.3008l23.973-55.949h71.645l-7.3242 51.258c-0.32813 2.2969 0.26953 4.6328 1.6602 6.4883 1.3906 1.8594 3.4648 3.0859 5.7617 3.418 4.7852 0.68359 9.2188-2.6367 9.9062-7.4219l7.6719-53.742h72.328l7.6719 53.742c0.6875 4.7852 5.1211 8.1055 9.9062 7.4219 4.7852-0.6875 8.1055-5.1211 7.4219-9.9062l-7.3242-51.258h71.645l23.977 55.949h-0.003907c1.3789 3.2148 4.543 5.3008 8.043 5.3008 1.1875 0.003906 2.3594-0.23828 3.4492-0.70703 4.4375-1.9062 6.4961-7.0508 4.5938-11.492l-21.027-49.051h69.125l32.48 56.875c1.5703 2.7227 4.4844 4.3945 7.6289 4.375 1.5352 0.011719 3.0469-0.38672 4.375-1.1562 4.1953-2.3984 5.6523-7.7383 3.2539-11.934l-27.551-48.16h19.922c4.832 0 8.75-3.918 8.75-8.75s-3.918-8.75-8.75-8.75h-29.926l-25-43.75zm-457.42 43.75 25-43.75h60.375l-18.75 43.75zm85.688 0 18.75-43.75h54.145l-6.2461 43.75zm231.73-113.75h61.25v52.5h-61.25zm89.922 113.75h-66.656l-18.75-43.75h60.375z"/>
  <path d="m385 262.5c-4.832 0-8.75 3.918-8.75 8.75v52.5c0 4.832 3.918 8.75 8.75 8.75s8.75-3.918 8.75-8.75v-52.5c0-2.3203-0.92188-4.5469-2.5625-6.1875s-3.8672-2.5625-6.1875-2.5625z"/>
  <path d="m382.44 203.81-26.25-26.25c-3.418-3.4141-8.957-3.4141-12.375 0l-26.25 26.25c-3.4141 3.418-3.4141 8.957 0 12.375l26.25 26.25c3.418 3.4141 8.957 3.4141 12.375 0l26.25-26.25c3.4141-3.418 3.4141-8.957 0-12.375z"/>
  <path d="m457.56 119.94c3.418 3.4141 8.957 3.4141 12.375 0l26.25-26.25c3.4141-3.418 3.4141-8.957 0-12.375l-26.25-26.25c-3.418-3.4141-8.957-3.4141-12.375 0l-26.25 26.25c-3.4141 3.418-3.4141 8.957 0 12.375z"/>
  <path d="m212.56 84.938c3.418 3.4141 8.957 3.4141 12.375 0l26.25-26.25c3.4141-3.418 3.4141-8.957 0-12.375l-26.25-26.25c-3.418-3.4141-8.957-3.4141-12.375 0l-26.25 26.25c-3.4141 3.418-3.4141 8.957 0 12.375z"/>
  <path d="m238.81 282.56-26.25 26.25c-3.4141 3.418-3.4141 8.957 0 12.375l26.25 26.25c3.418 3.4141 8.957 3.4141 12.375 0l26.25-26.25c3.4141-3.418 3.4141-8.957 0-12.375l-26.25-26.25c-3.418-3.4141-8.957-3.4141-12.375 0z"/>
  <path d="m378.81 352.56-26.25 26.25c-3.4141 3.418-3.4141 8.957 0 12.375l26.25 26.25c3.418 3.4141 8.957 3.4141 12.375 0l26.25-26.25c3.4141-3.418 3.4141-8.957 0-12.375l-26.25-26.25c-3.418-3.4141-8.957-3.4141-12.375 0z"/>
  <use x="70" y="691.25" xlink:href="#l"/>
  <use x="102.109375" y="691.25" xlink:href="#i"/>
  <use x="123.683594" y="691.25" xlink:href="#c"/>
  <use x="153.355469" y="691.25" xlink:href="#b"/>
  <use x="182.878906" y="691.25" xlink:href="#h"/>
  <use x="203.792969" y="691.25" xlink:href="#c"/>
  <use x="233.464844" y="691.25" xlink:href="#g"/>
  <use x="280.011719" y="691.25" xlink:href="#f"/>
  <use x="311.328125" y="691.25" xlink:href="#e"/>
  <use x="355.078125" y="691.25" xlink:href="#a"/>
  <use x="388.980469" y="691.25" xlink:href="#k"/>
  <use x="419.039062" y="691.25" xlink:href="#j"/>
  <use x="450.183594" y="691.25" xlink:href="#a"/>
  <use x="484.085938" y="691.25" xlink:href="#b"/>
  <use x="513.609375" y="691.25" xlink:href="#d"/>
  <use x="544.925781" y="691.25" xlink:href="#d"/>
 </g>
</svg>
