<svg xmlns="http://www.w3.org/2000/svg" xmlns:xlink="http://www.w3.org/1999/xlink" version="1.1" x="0px" y="0px" viewBox="0 0 64 64" enable-background="new 0 0 64 64" xml:space="preserve"><g><path d="M60.853,31.479l-4.024-5.661c-0.188-0.264-0.491-0.42-0.815-0.42h-2.13c-0.271,0-0.531,0.11-0.72,0.306l-2.251,2.335   l-2.355-2.349c-0.391-0.39-1.021-0.39-1.412,0l-2.369,2.363l-2.369-2.363c-0.189-0.189-0.448-0.308-0.716-0.292   c-0.269,0.002-0.524,0.113-0.71,0.306l-2.251,2.335l-2.355-2.349c-0.188-0.187-0.441-0.292-0.706-0.292h-3.972   c-2.502-5.18-7.746-8.491-13.539-8.491c-8.378,0-15.195,6.797-15.195,15.152c0,8.291,6.816,15.035,15.195,15.035   c5.82,0,11.063-3.265,13.538-8.374h24.317c0.324,0,0.628-0.157,0.815-0.42l4.024-5.661C61.099,32.291,61.099,31.826,60.853,31.479z    M55.497,36.72H31.054c-0.399,0-0.761,0.238-0.918,0.605c-2.029,4.72-6.73,7.769-11.978,7.769c-7.276,0-13.195-5.848-13.195-13.035   c0-7.252,5.919-13.152,13.195-13.152c5.215,0,9.917,3.096,11.978,7.886c0.158,0.367,0.519,0.605,0.918,0.605h4.201l2.782,2.775   c0.189,0.189,0.442,0.293,0.716,0.292c0.269-0.002,0.524-0.113,0.71-0.306l2.251-2.335l2.355,2.349c0.391,0.39,1.021,0.39,1.412,0   l2.369-2.363l2.369,2.363c0.189,0.189,0.435,0.293,0.716,0.292c0.269-0.002,0.524-0.113,0.71-0.306l2.662-2.761h1.189l2.603,3.661   H45.131c-0.553,0-1,0.448-1,1s0.447,1,1,1H58.1L55.497,36.72z"></path><path d="M12.48,27.994c-2.21,0-4.077,1.861-4.077,4.064c0,2.204,1.867,4.066,4.077,4.066c2.285,0,4.075-1.786,4.075-4.066   C16.556,29.779,14.766,27.994,12.48,27.994z M12.48,34.125c-1.106,0-2.077-0.966-2.077-2.066c0-1.1,0.971-2.064,2.077-2.064   c1.164,0,2.075,0.907,2.075,2.064C14.556,33.217,13.644,34.125,12.48,34.125z"></path></g></svg>