<?xml version="1.0" encoding="UTF-8"?>
<svg width="700pt" height="700pt" version="1.1" viewBox="0 0 700 700" xmlns="http://www.w3.org/2000/svg">
 <g>
  <path d="m112.86 148.87-0.42578 55.289c36.5 5.9297 64.445 37.676 64.445 75.824 0 38.18-27.992 69.945-64.535 75.84v54.785l102.43 0.10547 0.003906-261.74z"/>
  <path d="m587.56 355.81c-36.5-5.9297-64.445-37.676-64.445-75.824 0-38.18 27.992-69.945 64.535-75.84v-54.789l-348.28-0.35547v261.75l347.77 0.35547zm-302.09-39.629h78.195c6.7852 0 12.293 5.5078 12.293 12.293s-5.5039 12.293-12.293 12.293h-78.195c-6.7852 0-12.293-5.5039-12.293-12.293 0.003906-6.7852 5.5078-12.293 12.293-12.293zm184.04 69.656h-184.04c-6.7852 0-12.293-5.5039-12.293-12.293 0-6.7852 5.5039-12.293 12.293-12.293h184.04c6.7852 0 12.293 5.5039 12.293 12.293 0 6.7891-5.5078 12.293-12.293 12.293z"/>
 </g>
</svg>
