<svg xmlns="http://www.w3.org/2000/svg" xmlns:xlink="http://www.w3.org/1999/xlink" version="1.1" x="0px" y="0px" viewBox="0 0 100 100" style="enable-background:new 0 0 100 100;" xml:space="preserve"><path d="M84,15H16c-3.31,0-6,2.69-6,6v58c0,3.31,2.69,6,6,6h68c3.31,0,6-2.69,6-6V21C90,17.69,87.31,15,84,15z M86,24H74  c-0.55,0-1,0.45-1,1s0.45,1,1,1h12v53c0,1.1-0.9,2-2,2H16c-1.1,0-2-0.9-2-2V26h52c0.55,0,1-0.45,1-1s-0.45-1-1-1H14v-3  c0-1.1,0.9-2,2-2h68c1.1,0,2,0.9,2,2V24z M71,25c0,0.55-0.45,1-1,1s-1-0.45-1-1c0-0.55,0.45-1,1-1S71,24.45,71,25z M67.9,61.39  c0.59,0.94,0.63,2.08,0.09,3.05S66.48,66,65.37,66H44c-0.55,0-1-0.45-1-1s0.45-1,1-1h21.37c0.53,0,0.79-0.36,0.88-0.52  c0.09-0.16,0.25-0.57-0.03-1.02L50.84,38.2c-0.38-0.59-1.31-0.59-1.69,0L33.79,62.46c-0.29,0.45-0.12,0.86-0.03,1.02  C33.84,63.64,34.1,64,34.63,64H36c0.55,0,1,0.45,1,1s-0.45,1-1,1h-1.37c-1.11,0-2.09-0.58-2.63-1.55s-0.5-2.11,0.09-3.05  l15.37-24.26c0.55-0.87,1.5-1.39,2.53-1.39s1.98,0.52,2.53,1.39L67.9,61.39z M49,55v-8c0-0.55,0.45-1,1-1s1,0.45,1,1v8  c0,0.55-0.45,1-1,1S49,55.55,49,55z M49,59c0-0.55,0.45-1,1-1s1,0.45,1,1c0,0.55-0.45,1-1,1S49,59.55,49,59z M41,65  c0,0.55-0.45,1-1,1s-1-0.45-1-1c0-0.55,0.45-1,1-1S41,64.45,41,65z"></path></svg>