<svg xmlns="http://www.w3.org/2000/svg" version="1.1" viewBox="0 0 64 64" x="0px" y="0px"><title>lock</title><path d="M32 1.333c-9.407 0-17.164 6.893-18.453 16-0.014 0.001-0.025 0.002-0.047 0l-0.031 0.505c-0.081 0.71-0.135 1.428-0.135 2.161v2.667c-2.946 0-5.333 2.4-5.333 5.333v29.333c0 2.933 2.388 5.333 5.333 5.333h37.333c2.947 0 5.333-2.4 5.333-5.333v-29.333c0-2.933-2.387-5.333-5.333-5.333v-2.667c0-0.734-0.054-1.451-0.135-2.161l-0.031-0.505c-0.022 0.002-0.033 0.001-0.047 0-1.289-9.107-9.046-16-18.453-16zM32 9.333c0.736 0 1.457 0.077 2.151 0.219 3.472 0.714 6.328 3.12 7.677 6.307 0.268 0.635 0.478 1.299 0.62 1.99 0.143 0.696 0.219 1.414 0.219 2.151v2.667h-21.333v-2.667c0-0.736 0.108-1.472 0.25-2.167 0.201-0.985 0.57-1.901 1.021-2.766 0.137-0.259 0.26-0.525 0.417-0.771 0.162-0.257 0.349-0.493 0.531-0.734 0.218-0.286 0.442-0.566 0.688-0.828 0.173-0.185 0.356-0.359 0.542-0.531 0.306-0.283 0.626-0.55 0.964-0.797 0.183-0.134 0.366-0.269 0.557-0.391 0.372-0.237 0.765-0.44 1.167-0.63 0.191-0.091 0.376-0.192 0.573-0.271 0.434-0.175 0.889-0.3 1.349-0.417 0.192-0.049 0.376-0.118 0.573-0.156 0.66-0.128 1.339-0.208 2.036-0.208z"></path></svg>