<?xml version="1.0" encoding="UTF-8"?>
<svg width="700pt" height="700pt" version="1.1" viewBox="0 0 700 700" xmlns="http://www.w3.org/2000/svg">
 <g>
  <path d="m533.75 199.8h-134.17v-84.594h52.5c4.8281 0 8.75-3.9219 8.75-8.75v-61.25c0-4.8281-3.9219-8.75-8.75-8.75h-204.16c-4.8281 0-8.75 3.9219-8.75 8.75v61.25c0 4.8281 3.9219 8.75 8.75 8.75h52.5v84.578h-134.17c-4.8281 0-8.75 3.9219-8.75 8.75v306.25c0 4.8281 3.9219 8.75 8.75 8.75h367.5c4.8281 0 8.75-3.9219 8.75-8.75v-306.25c0-4.832-3.9219-8.7344-8.75-8.7344zm-277.08-145.84h186.66v43.75h-186.66zm61.25 61.25h64.156v84.578h-64.156zm207.08 390.84h-350v-288.75h350z"/>
  <path d="m259.58 290.2v61.25c0 4.8281 3.9219 8.75 8.75 8.75h163.34c4.8281 0 8.75-3.9219 8.75-8.75v-61.25c0-4.8281-3.9219-8.75-8.75-8.75h-163.34c-4.832 0-8.75 3.918-8.75 8.75zm17.5 8.75h145.84v43.75h-145.84z"/>
 </g>
</svg>
