<?xml version="1.0" encoding="UTF-8"?>
<svg width="700pt" height="700pt" version="1.1" viewBox="0 0 700 700" xmlns="http://www.w3.org/2000/svg">
 <path d="m426.36 0 59.414 59.414c-23.488 23.422-23.488 61.383 0 84.871 23.422 23.422 61.383 23.422 84.871 0l59.352 59.352-83.156 83.156-30.531-30.531-20.375 20.375 30.531 30.531-252.83 252.83-59.352-59.352c23.422-23.488 23.422-61.445 0-84.871-23.488-23.488-61.445-23.488-84.871 0l-59.414-59.414 252.83-252.83 30.66 30.66 20.375-20.375-30.66-30.66zm31.867 198.18 30.598 30.598-20.375 20.312-30.531-30.531 20.312-20.375zm-56.941-56.941 30.531 30.531-20.375 20.375-30.531-30.598 20.375-20.312z" fill-rule="evenodd"/>
</svg>
