<svg xmlns="http://www.w3.org/2000/svg" xmlns:xlink="http://www.w3.org/1999/xlink" version="1.1" x="0px" y="0px" viewBox="0 0 26 35.09" style="enable-background:new 0 0 26 35.09;" xml:space="preserve"><g><path d="M25.5,14.65h-1.18c0-1.06,0-3.45,0-3.48C24.26,5.01,19.18,0,13,0C6.8,0,1.72,5.02,1.67,11.21v3.44H0.5   c-0.28,0-0.5,0.22-0.5,0.5v19.44c0,0.28,0.22,0.5,0.5,0.5h25c0.28,0,0.5-0.22,0.5-0.5V15.15C26,14.87,25.78,14.65,25.5,14.65z    M2.67,11.21C2.72,5.58,7.35,1,13,1c5.63,0,10.26,4.57,10.32,10.18c0,0.08,0,2.42,0,3.47H2.67V11.21z M25,34.09H1V15.65h1.17H25   V34.09z"></path><path d="M11.16,25.65v3.99c0,0.28,0.22,0.5,0.5,0.5h2.68c0.28,0,0.5-0.22,0.5-0.5v-3.99c0.92-0.61,1.48-1.64,1.48-2.74   c0-1.83-1.49-3.31-3.32-3.31s-3.32,1.49-3.32,3.31C9.68,24.01,10.24,25.04,11.16,25.65z M13,20.6c1.28,0,2.32,1.04,2.32,2.31   c0,0.84-0.47,1.61-1.22,2.02c-0.16,0.09-0.26,0.26-0.26,0.44v3.78h-1.68v-3.78c0-0.18-0.1-0.35-0.26-0.44   c-0.75-0.41-1.22-1.18-1.22-2.02C10.68,21.63,11.72,20.6,13,20.6z"></path></g></svg>