<?xml version="1.0" encoding="UTF-8"?>
<svg width="700pt" height="700pt" version="1.1" viewBox="0 0 700 700" xmlns="http://www.w3.org/2000/svg">
 <g>
  <path d="m586.93 435.57h-473.86c-13.824 0-25.074-11.234-25.074-25.051v-66.035c0-6.7812 5.5-12.281 12.281-12.281 28.785 0 52.195-23.41 52.195-52.195s-23.41-52.195-52.195-52.195c-6.7812 0-12.281-5.5-12.281-12.281v-66.02c0-13.824 11.25-25.074 25.074-25.074h473.86c13.824 0 25.074 11.234 25.074 25.051v66.035c0 6.7812-5.5 12.281-12.281 12.281-28.785 0-52.195 23.41-52.195 52.195s23.41 52.195 52.195 52.195c6.7812 0 12.281 5.5 12.281 12.281v66.012c0 13.832-11.25 25.082-25.074 25.082zm-474.37-79.789v54.738l474.37 0.48828 0.42187-55.242c-36.465-5.9258-64.387-37.645-64.387-75.762 0-38.148 27.969-69.883 64.477-75.777v-54.738l-474.37-0.48828-0.42187 55.242c36.465 5.9258 64.387 37.645 64.387 75.762 0 38.148-27.969 69.883-64.477 75.777z"/>
  <path d="m227.19 435.57h-114.11c-13.824 0-25.074-11.234-25.074-25.051v-66.035c0-6.7812 5.5-12.281 12.281-12.281 28.785 0 52.195-23.41 52.195-52.195s-23.41-52.195-52.195-52.195c-6.7812 0-12.281-5.5-12.281-12.281l-0.003906-66.02c0-13.824 11.25-25.074 25.074-25.074h114.11c6.7812 0 12.281 5.5 12.281 12.281v286.57c0.003906 6.7812-5.5 12.285-12.277 12.285zm-114.63-79.789v54.738l102.34 0.43359v-261.95h-101.83l-0.42187 55.242c36.465 5.9258 64.387 37.645 64.387 75.762 0 38.148-27.969 69.883-64.477 75.777z"/>
  <path d="m363.65 340.73h-78.125c-6.7812 0-12.281-5.5-12.281-12.281s5.5-12.281 12.281-12.281h78.125c6.7812 0 12.281 5.5 12.281 12.281s-5.5 12.281-12.281 12.281z"/>
  <path d="m469.4 385.76h-183.88c-6.7812 0-12.281-5.5-12.281-12.281s5.5-12.281 12.281-12.281h183.88c6.7812 0 12.281 5.5 12.281 12.281s-5.5039 12.281-12.285 12.281z"/>
 </g>
</svg>
