<svg xmlns:dc="http://purl.org/dc/elements/1.1/" xmlns:cc="http://creativecommons.org/ns#" xmlns:rdf="http://www.w3.org/1999/02/22-rdf-syntax-ns#" xmlns:svg="http://www.w3.org/2000/svg" xmlns="http://www.w3.org/2000/svg" xmlns:sodipodi="http://sodipodi.sourceforge.net/DTD/sodipodi-0.dtd" xmlns:inkscape="http://www.inkscape.org/namespaces/inkscape" version="1.1" x="0px" y="0px" viewBox="0 0 100 100"><g transform="translate(0,-952.36218)"><path style="text-indent:0;text-transform:none;direction:ltr;block-progression:tb;baseline-shift:baseline;color:#000000;enable-background:accumulate;" d="m 80.479385,1001.0671 c -5.84066,-5.8407 -14.04058,-7.75909 -21.54468,-5.9884 l -29.36703,-29.36699 c -0.34206,-0.34913 -0.8159,-0.56599 -1.30371,-0.59664 l -13.435039,-0.7071 c -1.13003,-0.0474 -2.17159,1.03844 -2.07713,2.16553 l 1.41422,16.97054 c 0.0815,0.97965 0.98366,1.82099 1.96661,1.8341 l 6.49659,0 0,6.49653 c 0.006,1.03966 0.949059,1.98278 1.988699,1.98872 l 6.49658,0 -3e-5,6.49651 c -0.003,0.5221 0.20833,1.0422 0.57455,1.4143 l 10.29724,10.2972 c -1.75289,7.4926 0.13664,15.693 5.96617,21.5226 8.9653,8.9652 23.56167,8.9652 32.52695,0 10.6026,-10.9996 7.31518,-25.2886 10e-6,-32.5269 z m -2.82842,2.8284 c 7.43666,7.4366 7.43663,19.4334 -3e-5,26.87 -7.43666,7.4367 -19.43337,7.4367 -26.87002,0 -5.11156,-5.1115 -6.68557,-12.409 -4.77297,-18.8709 0.19603,-0.6826 -0.006,-1.4645 -0.50823,-1.9666 l -10.38563,-10.38567 4e-5,-7.6898 c -0.006,-1.03965 -0.9491,-1.98278 -1.98878,-1.98873 l -6.49653,10e-6 10e-6,-6.49656 c -0.006,-1.03966 -0.94907,-1.98279 -1.98875,-1.98875 l -6.673299,2e-5 -1.06068,-12.8605 10.363539,0.55242 29.5438,29.5438 c 0.5108,0.5023 1.30382,0.69618 1.98872,0.48619 9.07061,-1.96613 14.43387,0.56127 18.84882,4.79497 z m -2.82843,14.1421 c -2.71692,-2.7169 -7.1826,-2.7169 -9.89951,0 -2.7169,2.7169 -2.71691,7.1826 1e-5,9.8995 2.7169,2.7169 7.18258,2.7169 9.89948,0 2.71694,-2.7169 2.71693,-7.1826 2e-5,-9.8995 z m -2.82844,2.8284 c 1.1883,1.1883 1.18831,3.0544 3e-5,4.2427 -1.18834,1.1883 -3.05438,1.1883 -4.24266,0 -1.1883,-1.1883 -1.1883,-3.0543 -2e-5,-4.2427 1.1883,-1.1883 3.05435,-1.1883 4.24265,0 z" fill="#000000" fill-opacity="1" stroke="none" marker="none" visibility="visible" display="inline" overflow="visible"></path></g></svg>