<svg xmlns="http://www.w3.org/2000/svg" xmlns:xlink="http://www.w3.org/1999/xlink" xml:space="preserve" version="1.1" style="shape-rendering:geometricPrecision;text-rendering:geometricPrecision;image-rendering:optimizeQuality;" viewBox="0 0 3.363 3.363" x="0px" y="0px" fill-rule="evenodd" clip-rule="evenodd"><defs><style type="text/css">
   
    .fil0 {fill:black;fill-rule:nonzero}
   
  </style></defs><g><path class="fil0" d="M2.176 0.024l0.194 0.194c0.032,0.032 0.032,0.084 0,0.116 -0.024,0.024 -0.036,0.056 -0.036,0.088l0 0.004c0.001,0.03 0.013,0.06 0.036,0.083 0.024,0.024 0.056,0.036 0.087,0.036 0.032,0 0.063,-0.012 0.087,-0.036 0.033,-0.032 0.085,-0.032 0.117,0l0.194 0.194c0.032,0.032 0.032,0.084 0,0.116 -0.025,0.024 -0.037,0.056 -0.037,0.087l0 0.005c0.001,0.03 0.013,0.059 0.037,0.082 0.024,0.025 0.055,0.037 0.087,0.037 0.031,0 0.063,-0.012 0.087,-0.037 0.032,-0.032 0.084,-0.032 0.116,0l0.194 0.194c0.032,0.032 0.032,0.085 0,0.117l-2.035 2.035c-0.032,0.032 -0.085,0.032 -0.117,0l-0.194 -0.194c-0.032,-0.032 -0.032,-0.084 0,-0.116 0.025,-0.024 0.037,-0.056 0.037,-0.087l0 0c0,-0.032 -0.012,-0.063 -0.037,-0.087 -0.024,-0.025 -0.055,-0.037 -0.087,-0.037l-0.004 0c-0.03,0.001 -0.06,0.013 -0.083,0.037 -0.032,0.032 -0.084,0.032 -0.116,0l-0.194 -0.194c-0.032,-0.032 -0.032,-0.084 0,-0.117 0.024,-0.024 0.036,-0.055 0.036,-0.087l0 0c0,-0.031 -0.012,-0.063 -0.036,-0.087 -0.024,-0.024 -0.056,-0.036 -0.087,-0.036l-0.005 0c-0.03,0.001 -0.06,0.013 -0.083,0.036 -0.032,0.032 -0.084,0.032 -0.116,0l-0.194 -0.194c-0.032,-0.032 -0.032,-0.084 0,-0.116l2.036 -2.036c0.032,-0.032 0.084,-0.032 0.116,0zm-0.116 0.698l0.581 0.582c0.032,0.032 0.032,0.084 0,0.116l-1.221 1.221c-0.032,0.032 -0.084,0.032 -0.116,0l-0.582 -0.581c-0.032,-0.032 -0.032,-0.085 0,-0.117l1.221 -1.221c0.032,-0.032 0.085,-0.032 0.117,0zm0.407 0.64l-0.465 -0.465 -1.105 1.105 0.465 0.465 1.105 -1.105zm-0.263 -1.077l-0.086 -0.086 -1.919 1.919 0.086 0.086c0.04,-0.022 0.085,-0.033 0.129,-0.034l0.008 -0.001c0.073,0 0.147,0.028 0.203,0.085 0.056,0.056 0.084,0.129 0.084,0.203l0 0c0,0.047 -0.011,0.095 -0.034,0.137l0.094 0.095c0.041,-0.022 0.085,-0.034 0.13,-0.035l0.007 0c0.074,0 0.148,0.028 0.204,0.084 0.056,0.056 0.084,0.13 0.084,0.204l0 0c0,0.047 -0.012,0.094 -0.035,0.137l0.086 0.086 1.92 -1.92 -0.086 -0.086c-0.043,0.024 -0.09,0.035 -0.137,0.035 -0.074,0 -0.148,-0.028 -0.204,-0.084 -0.054,-0.054 -0.082,-0.125 -0.084,-0.197l0 -0.007c0,-0.047 0.011,-0.094 0.035,-0.137l-0.095 -0.094c-0.042,0.023 -0.09,0.034 -0.137,0.034 -0.074,0 -0.147,-0.028 -0.203,-0.084 -0.055,-0.054 -0.083,-0.125 -0.084,-0.196l-0.001 -0.007c0,-0.048 0.012,-0.095 0.035,-0.137z"></path></g></svg>