<svg xmlns="http://www.w3.org/2000/svg" xmlns:xlink="http://www.w3.org/1999/xlink" xmlns:sketch="http://www.bohemiancoding.com/sketch/ns" viewBox="0 0 30 30" version="1.1" x="0px" y="0px"><title>action_015-lock-secure-protect-retriction</title><desc>Created with Sketch.</desc><g stroke="none" stroke-width="1" fill="none" fill-rule="evenodd" sketch:type="MSPage"><g sketch:type="MSArtboardGroup" transform="translate(-225.000000, -90.000000)" fill="#000000"><g sketch:type="MSLayerGroup" transform="translate(230.000000, 93.000000)"><path d="M17,7 C17,3.13400675 13.8659932,0 10,0 C6.13400675,0 3,3.13400675 3,7 L3,13 L5,13 L5,7 C5,4.23857625 7.23857625,2 10,2 C12.7614237,2 15,4.23857625 15,7 L15,13 L17,13 L17,7 Z" sketch:type="MSShapeGroup"></path><path d="M0,12.0058587 L0,21.9941413 C0,23.1019465 0.898212381,24 1.99079514,24 L18.0092049,24 C19.1086907,24 20,23.1029399 20,21.9941413 L20,12.0058587 C20,10.8980535 19.1017876,10 18.0092049,10 L1.99079514,10 C0.891309342,10 0,10.8970601 0,12.0058587 Z" sketch:type="MSShapeGroup"></path></g></g></g></svg>