<svg xmlns="http://www.w3.org/2000/svg" xmlns:xlink="http://www.w3.org/1999/xlink" version="1.1" x="0px" y="0px" viewBox="0 0 66 66" style="enable-background:new 0 0 66 66;" xml:space="preserve"><path d="M60,1.2H6c-2.62,0-4.75,2.13-4.75,4.75v42.62c0,2.62,2.13,4.75,4.75,4.75h12.17c0.41,0,0.75-0.34,0.75-0.75  s-0.34-0.75-0.75-0.75H6c-1.79,0-3.25-1.46-3.25-3.25V13.09h60.5v35.48c0,1.79-1.46,3.25-3.25,3.25H47.83  c-0.41,0-0.75,0.34-0.75,0.75s0.34,0.75,0.75,0.75H60c2.62,0,4.75-2.13,4.75-4.75V5.95C64.75,3.33,62.62,1.2,60,1.2z M2.75,11.59  V5.95C2.75,4.16,4.21,2.7,6,2.7h54c1.79,0,3.25,1.46,3.25,3.25v5.64H2.75z"></path><path d="M9.36,4.9c-1.24,0-2.25,1.01-2.25,2.25S8.12,9.4,9.36,9.4s2.25-1.01,2.25-2.25S10.6,4.9,9.36,4.9z M9.36,7.9  c-0.41,0-0.75-0.34-0.75-0.75S8.95,6.4,9.36,6.4s0.75,0.34,0.75,0.75S9.77,7.9,9.36,7.9z"></path><path d="M15.02,4.9c-1.24,0-2.25,1.01-2.25,2.25s1.01,2.25,2.25,2.25s2.25-1.01,2.25-2.25S16.27,4.9,15.02,4.9z M15.02,7.9  c-0.41,0-0.75-0.34-0.75-0.75s0.34-0.75,0.75-0.75s0.75,0.34,0.75,0.75S15.44,7.9,15.02,7.9z"></path><path d="M20.69,4.9c-1.24,0-2.25,1.01-2.25,2.25s1.01,2.25,2.25,2.25s2.25-1.01,2.25-2.25S21.93,4.9,20.69,4.9z M20.69,7.9  c-0.41,0-0.75-0.34-0.75-0.75s0.34-0.75,0.75-0.75s0.75,0.34,0.75,0.75S21.1,7.9,20.69,7.9z"></path><path d="M36.47,37.92c-0.74-1.23-2.03-1.97-3.47-1.97s-2.73,0.74-3.47,1.97L17.14,58.69c-0.75,1.26-0.77,2.78-0.04,4.06  c0.73,1.28,2.04,2.04,3.51,2.04h24.79c1.47,0,2.79-0.76,3.51-2.04c0.73-1.28,0.71-2.8-0.04-4.06L36.47,37.92z M47.6,62.01  c-0.46,0.81-1.28,1.29-2.21,1.29H20.61c-0.93,0-1.75-0.48-2.21-1.29c-0.46-0.8-0.45-1.76,0.03-2.55l12.39-20.77  c0.46-0.77,1.28-1.24,2.18-1.24s1.72,0.46,2.18,1.24l12.39,20.77C48.05,60.25,48.06,61.21,47.6,62.01z"></path><path d="M30.77,42.35c-0.59,0.62-0.89,1.43-0.84,2.29l0.58,9.22c0.07,1.33,1.17,2.37,2.5,2.37c1.33,0,2.43-1.04,2.5-2.37l0.58-9.23  c0.04-0.85-0.26-1.66-0.84-2.28C34.06,41.11,31.94,41.11,30.77,42.35z M34,53.78c-0.03,0.53-0.47,0.95-1,0.95s-0.97-0.42-1-0.96  l-0.58-9.22c-0.02-0.44,0.13-0.85,0.43-1.17s0.71-0.49,1.15-0.49s0.84,0.17,1.15,0.49s0.46,0.73,0.43,1.16L34,53.78z"></path><path d="M33,56.74c-1.33,0-2.41,1.08-2.41,2.41s1.08,2.41,2.41,2.41s2.41-1.08,2.41-2.41S34.33,56.74,33,56.74z M33,60.07  c-0.5,0-0.91-0.41-0.91-0.91s0.41-0.91,0.91-0.91s0.91,0.41,0.91,0.91S33.5,60.07,33,60.07z"></path><path d="M22.94,34.05c0.41,0,0.75-0.34,0.75-0.75V28.6h1.94c0.41,0,0.75-0.34,0.75-0.75s-0.34-0.75-0.75-0.75h-1.94v-7.48  c0-0.32-0.2-0.6-0.5-0.71c-0.3-0.11-0.63-0.02-0.83,0.23l-6.81,8.23c-0.19,0.22-0.22,0.53-0.1,0.8c0.12,0.26,0.39,0.43,0.68,0.43  h6.06v4.69C22.19,33.71,22.53,34.05,22.94,34.05z M22.19,21.7v5.4h-4.47L22.19,21.7z"></path><path d="M47.43,18.91c-0.3-0.11-0.63-0.02-0.83,0.23l-6.81,8.23c-0.19,0.22-0.22,0.53-0.1,0.8c0.12,0.26,0.39,0.43,0.68,0.43h6.06  v4.69c0,0.41,0.34,0.75,0.75,0.75s0.75-0.34,0.75-0.75V28.6h1.94c0.41,0,0.75-0.34,0.75-0.75s-0.34-0.75-0.75-0.75h-1.94v-7.48  C47.93,19.3,47.73,19.02,47.43,18.91z M46.43,21.7v5.4h-4.47L46.43,21.7z"></path><path d="M28.72,23.15v6.62c0,2.36,1.92,4.28,4.28,4.28s4.28-1.92,4.28-4.28v-6.62c0-2.36-1.92-4.28-4.28-4.28  S28.72,20.79,28.72,23.15z M35.78,23.15v6.62c0,1.53-1.25,2.78-2.78,2.78s-2.78-1.25-2.78-2.78v-6.62c0-1.53,1.25-2.78,2.78-2.78  S35.78,21.61,35.78,23.15z"></path><path d="M45.44,49.32H60c0.41,0,0.75-0.34,0.75-0.75V16.34c0-0.41-0.34-0.75-0.75-0.75H6c-0.41,0-0.75,0.34-0.75,0.75v32.23  c0,0.41,0.34,0.75,0.75,0.75h14.56c0.41,0,0.75-0.34,0.75-0.75s-0.34-0.75-0.75-0.75H6.75V17.09h52.5v30.73H45.44  c-0.41,0-0.75,0.34-0.75,0.75S45.03,49.32,45.44,49.32z"></path></svg>