<svg xmlns="http://www.w3.org/2000/svg" data-name="Layer 1" viewBox="0 0 100 100" x="0px" y="0px"><title>126all</title><path d="M50,11.65A18.44,18.44,0,0,0,31.58,30.07v8.83H22.73a1,1,0,0,0-1,1V87.35a1,1,0,0,0,1,1H77.27a1,1,0,0,0,1-1V39.89a1,1,0,0,0-1-1H68.42V30.07A18.44,18.44,0,0,0,50,11.65ZM33.58,30.07a16.42,16.42,0,0,1,32.84,0v8.83H33.58ZM76.27,86.35H23.73V40.89H76.27Z"></path><path d="M49,70.68v8.6h2v-8.6a6.06,6.06,0,1,0-2,0Zm1-10a4.06,4.06,0,1,1-4.06,4.06A4.07,4.07,0,0,1,50,60.65Z"></path></svg>