<?xml version="1.0" encoding="UTF-8"?>
<svg width="1200pt" height="1200pt" version="1.1" viewBox="0 0 1200 1200" xmlns="http://www.w3.org/2000/svg">
 <path d="m1099 157.32c-64.59-64.457-152.11-100.66-243.36-100.66-91.25 0-178.77 36.199-243.36 100.66l-12 12-12-12c-64.559-64.656-152.16-101.02-243.52-101.08-91.367-0.066406-179.02 36.164-243.68 100.72-64.652 64.559-101.02 152.16-101.08 243.52-0.066406 91.367 36.164 179.02 100.72 243.68l12 12 487.32 487.08 486.6-486.72 12-12c42.922-42.656 73.824-95.891 89.574-154.32 15.754-58.43 15.797-119.98 0.13281-178.43-15.664-58.449-46.488-111.73-89.348-154.45z" fill="#dd1028"/>
</svg>
