<svg xmlns="http://www.w3.org/2000/svg" viewBox="0 0 100 100" x="0px" y="0px"><title>Artboard 5</title><g data-name="Layer 2"><path d="M83,36.54a.49.49,0,0,0-.41-.21H34.23L31.16,23.44v-.06a.05.05,0,0,1,0,0l0-.09L31,23.18a.23.23,0,0,0-.07-.07l-.07-.05-.1,0H17.37a.5.5,0,0,0-.5.5.5.5,0,0,0,.5.5H30.26l8.59,36a.49.49,0,0,0,.48.39H74a.5.5,0,0,0,.47-.33L83.1,37A.48.48,0,0,0,83,36.54ZM73.69,59.39h-34L34.47,37.33H81.91Z"></path><path d="M40.6,64.8a6.1,6.1,0,1,0,6.1,6.1A6.11,6.11,0,0,0,40.6,64.8Zm0,11.2a5.1,5.1,0,1,1,5.1-5.1A5.1,5.1,0,0,1,40.6,76Z"></path><path d="M71.62,64.8a6.1,6.1,0,1,0,6.1,6.1A6.11,6.11,0,0,0,71.62,64.8Zm0,11.2a5.1,5.1,0,1,1,5.1-5.1A5.1,5.1,0,0,1,71.62,76Z"></path></g></svg>