<svg xmlns="http://www.w3.org/2000/svg" xmlns:xlink="http://www.w3.org/1999/xlink" version="1.1" x="0px" y="0px" viewBox="1 -1 100 100" style="enable-background:new 1 -1 100 100;" xml:space="preserve"><title>20</title><title>20</title><g><path d="M39.7,71.5c-4,0-7.2,3.3-7.2,7.3s3.2,7.4,7.2,7.4s7.2-3.3,7.2-7.4S43.7,71.5,39.7,71.5z M39.7,84.2c-2.9,0-5.2-2.4-5.2-5.4   s2.3-5.3,5.2-5.3c2.9,0,5.2,2.4,5.2,5.3S42.6,84.2,39.7,84.2z"></path><path d="M76.4,71.5c-4,0-7.2,3.3-7.2,7.3s3.2,7.4,7.2,7.4s7.2-3.3,7.2-7.4S80.3,71.5,76.4,71.5z M76.4,84.2c-2.9,0-5.2-2.4-5.2-5.4   s2.3-5.3,5.2-5.3c2.9,0,5.2,2.4,5.2,5.3S79.2,84.2,76.4,84.2z"></path><path d="M38.2,53.1h43.1l9.7-30.8H28.8l-3.3-10.5H11.1v2h13l12.3,38.6L31,64.6h56.2v-2H34.1L38.2,53.1z M88.2,24.3l-8.4,26.8H38   l-8.5-26.8H88.2z"></path></g></svg>