<svg xmlns="http://www.w3.org/2000/svg" data-name="Layer 1" viewBox="0 0 100 100" x="0px" y="0px"><title>16</title><g data-name="Group"><path data-name="Compound Path" d="M50,13.2A11.5,11.5,0,0,0,38.5,24.7v8.5h-13a.9.9,0,0,0-1,.9c-2.2,19.1-5.9,51.1-5.8,51.8a.9.9,0,0,0,1,.9H80.3a1.1,1.1,0,0,0,.8-.3.8.8,0,0,0,.2-.8L75.5,34.1a.9.9,0,0,0-1-.9h-13V24.7A11.5,11.5,0,0,0,50,13.2ZM40.5,24.7a9.5,9.5,0,0,1,19,0v8.5h-19ZM73.6,35.2l5.6,49.6H20.7c.7-6,4.1-36.3,5.6-49.6H38.5V51h2V35.2h19V51h2V35.2Z"></path></g></svg>