<svg xmlns="http://www.w3.org/2000/svg" xmlns:xlink="http://www.w3.org/1999/xlink" version="1.1" x="0px" y="0px" viewBox="0 0 100 100" style="enable-background:new 0 0 100 100;" xml:space="preserve"><path d="M15,23.5V89c0,0.55273,0.44727,1,1,1h68c0.55273,0,1-0.44727,1-1V23.5c0-0.55273-0.44727-1-1-1H67.70599  C65.32599,15.2619,58.29047,10,50,10s-15.32593,5.2619-17.70593,12.5H16C15.44727,22.5,15,22.94727,15,23.5z M50,12  c7.16193,0,13.25903,4.38757,15.5686,10.5H34.4314C36.74097,16.38757,42.83807,12,50,12z M17,24.5h14.77325  c-0.21991,1.09906-0.34454,2.23059-0.34454,3.39062c0,0.55273,0.44727,1,1,1s1-0.44727,1-1  c0-1.16443,0.13983-2.29681,0.38898-3.39062h32.36462c0.24915,1.09381,0.38898,2.2262,0.38898,3.39062c0,0.55273,0.44727,1,1,1  s1-0.44727,1-1c0-1.16003-0.12463-2.29156-0.34454-3.39062H83V88H17V24.5z"></path></svg>