<svg xmlns="http://www.w3.org/2000/svg" data-name="Layer 1" viewBox="0 0 100 100" x="0px" y="0px"><title>137all</title><path d="M27.14,84.8a8.6,8.6,0,1,0,8.6-8.6A8.61,8.61,0,0,0,27.14,84.8Zm15.21,0a6.6,6.6,0,1,1-6.6-6.6A6.61,6.61,0,0,1,42.35,84.8Z"></path><path d="M71.76,76.2a8.6,8.6,0,1,0,8.6,8.6A8.61,8.61,0,0,0,71.76,76.2Zm0,15.21a6.6,6.6,0,1,1,6.6-6.6A6.61,6.61,0,0,1,71.76,91.41Z"></path><path d="M84.05,53.82l9.06-32.27a1,1,0,0,0-1-1.27H24.07l-.08,0L21.79,7.42a1,1,0,0,0-1-.83H7.86a1,1,0,0,0,0,2H20L30,67.23a1,1,0,0,0,1,.83H79.36a1,1,0,0,0,0-2H31.79l-2-11.5H83.09A1,1,0,0,0,84.05,53.82Zm6.77-31.54L88.24,31.5H25.89l-1.57-9.22ZM29.48,52.55,26.24,33.5H87.68L82.33,52.55Z"></path></svg>