<svg xmlns="http://www.w3.org/2000/svg" xmlns:xlink="http://www.w3.org/1999/xlink" version="1.1" x="0px" y="0px" viewBox="0 0 100 100" style="enable-background:new 0 0 100 100;" xml:space="preserve"><path d="M11.125,12h5.518l8.641,55.727c-0.018,0.076-0.046,0.148-0.046,0.23c0,0.192,0.068,0.36,0.162,0.512l1.363,8.789  c0.076,0.487,0.495,0.847,0.988,0.847h5.276c-1.772,1.156-2.947,3.153-2.947,5.421c0,3.569,2.904,6.473,6.473,6.473  s6.473-2.904,6.473-6.473c0-2.269-1.176-4.265-2.947-5.421h29.631c-1.772,1.156-2.947,3.153-2.947,5.421  c0,3.569,2.904,6.473,6.473,6.473s6.473-2.904,6.473-6.473c0-2.269-1.176-4.265-2.947-5.421h6.574c0.552,0,1-0.448,1-1s-0.448-1-1-1  H28.607l-1.108-7.148h56.078c0.503,0,0.928-0.374,0.992-0.872l5.549-43.082c0.037-0.285-0.051-0.572-0.241-0.788  c-0.19-0.216-0.463-0.34-0.751-0.34H20.508l-2.02-13.028C18.413,10.359,17.993,10,17.5,10h-6.375c-0.552,0-1,0.448-1,1  S10.573,12,11.125,12z M36.552,88c-2.466,0-4.473-2.007-4.473-4.473s2.007-4.473,4.473-4.473s4.473,2.007,4.473,4.473  S39.019,88,36.552,88z M73.235,88c-2.466,0-4.473-2.007-4.473-4.473s2.007-4.473,4.473-4.473s4.473,2.007,4.473,4.473  S75.701,88,73.235,88z M84.677,51.581H71.764l1.167-12.178h13.315L84.677,51.581z M69.755,51.581H55.935V39.403h14.986  L69.755,51.581z M55.935,53.581h13.628l-1.282,13.376H55.935V53.581z M53.935,66.957H42.078l-1.602-13.376h13.46V66.957z   M55.935,37.403V25.875h16.283l-1.105,11.528H55.935z M53.935,37.403H38.537l-1.381-11.528h16.779V37.403z M53.935,39.403v12.178  h-13.7l-1.459-12.178H53.935z M38.222,51.581H24.804l-1.888-12.178h13.847L38.222,51.581z M25.114,53.581h13.347l1.602,13.376  H27.188L25.114,53.581z M82.697,66.957H70.291l1.282-13.376h12.847L82.697,66.957z M86.503,37.403h-13.38l1.105-11.528h13.76  L86.503,37.403z M35.142,25.875l1.381,11.528H22.606l-1.788-11.528H35.142z"></path></svg>