<svg xmlns="http://www.w3.org/2000/svg" xmlns:xlink="http://www.w3.org/1999/xlink" version="1.1" x="0px" y="0px" viewBox="0 0 100 100" style="enable-background:new 0 0 100 100;" xml:space="preserve"><style type="text/css">
	.st0{fill:none;stroke:#000000;stroke-width:2;stroke-linecap:round;stroke-linejoin:round;stroke-miterlimit:10;}
	.st1{fill:none;stroke:#000000;stroke-miterlimit:10;}
	.st2{stroke:#000000;stroke-width:2;stroke-linecap:round;stroke-linejoin:round;stroke-miterlimit:10;}
	.st3{fill:none;stroke:#000000;stroke-linecap:round;stroke-linejoin:round;stroke-miterlimit:10;}
	.st4{fill:none;stroke:#000000;stroke-linejoin:round;stroke-miterlimit:10;}
	.st5{stroke:#000000;stroke-linejoin:round;stroke-miterlimit:10;}
	.st6{fill:none;stroke:#000000;stroke-linecap:round;stroke-miterlimit:10;}
	.st7{fill:none;stroke:#000000;stroke-width:3;stroke-miterlimit:10;}
	.st8{fill:none;stroke:#000000;stroke-width:5;stroke-linecap:round;stroke-miterlimit:10;}
	.st9{fill:none;stroke:#000000;stroke-width:6;stroke-linecap:round;stroke-miterlimit:10;}
	.st10{fill:none;stroke:#000000;stroke-width:2;stroke-linecap:round;stroke-miterlimit:10;}
	.st11{fill:none;stroke:#000000;stroke-width:0.75;stroke-linecap:round;stroke-miterlimit:10;}
</style><g><path d="M80.1155396,23.1101685c0,0,0.7831421-1.4281006,0-2.4415894s-2.1652222-0.9674072-2.1652222-0.9674072   s-0.8983154-0.1536865-1.5032959,0.4855347c-0.1912231-0.0612793-0.4869385-0.1405029-0.6524048-0.0908813   c-0.2520142,0.0756226-0.9578247,0.630127-1.1846313,1.4367065c-0.2268677,0.8065796-0.1764526,1.1090698-0.1764526,1.1090698   l0.2155151,0.0754395c-0.5370483,0.7888184-0.9830322,1.4526978-0.9830322,1.4526978l0.7136841,0.5037231   c-0.0105591,0.0125732-0.0250854,0.0197754-0.0345459,0.0336304l-0.7871094,1.1523438l-0.9828491,1.2755127l-17.1234131-5.0301514   c0.0878906-0.6380005,0.0560913-1.2722168-0.2111206-1.8068848c-0.2490234-0.4969482-0.5935669-0.6405029-0.8494263-0.6740112   l0.8649292-1.5539551c0,0,0.2251587,0.0266724,0.4953613-0.0094604c-0.0004272-0.2994995,0.0050049-1.1160889,0.0767212-1.3272705   c0.1730957-0.5097656,0.6084595-0.9328003,0.7887573-1.0916138c-0.0135498-0.0501099-0.0261841-0.1043701-0.0427246-0.1402588   c-0.2028198-0.4393921-0.574585-0.3041992-0.5914917-0.4562988s-0.3548584-0.5407715-0.7435303-0.7773438   s-1.4194946-0.3548584-1.9264526-0.2196655c-0.507019,0.1351929-0.828064,0.6421509-0.828064,0.6421509l-1.9602661,3.1600952   l0.8356323,0.6176758l-2.6028442,3.980835l-1.5266113,4.4678345c-9.2398682,4.3656616-26.3654785,12.4649048-26.9016113,12.774353   c-0.375,0.2167969-0.6386719,0.5654297-0.7421875,0.9819336c-0.2006836,0.809082,0.2519531,1.6176758,0.3955078,1.8466797   l0.1508789,0.2397461l0.2539063,0.1254883c2.9970703,1.4781494,9.3297729,4.5709839,12.1738281,5.734436l-0.0794678,1.2736206   v-0.2635498c0-0.1971436-0.1135864-0.3765869-0.291687-0.4610596l-11.4187012-5.4143066   c-0.3575439-0.1694946-0.7636108,0.1147461-0.7266235,0.508728l1.0263062,12.3464355   c0.0158081,0.1682739,0.1138916,0.3178101,0.2619629,0.399353l5.6971436,3.1361084   c3.0608521,1.8465576,9.1524658,5.4859619,9.817688,5.6069336c0.0942383,0.0170898,0.1835938,0.0249023,0.2685547,0.0249023   c0.6850586,0,1.081543-0.5107422,1.2036133-0.8134766l0.0603638-0.6455688   c0.845459,0.5055542,1.4630127,0.8483887,1.6207886,0.8721313c0.0361328,0.0058594,0.0717773,0.0083008,0.1079102,0.0083008   c0.6049805,0,1.1733398-0.7402344,1.3408203-0.9785156l0.0748901-0.4829712   c0.6045532,0.345459,1.0332642,0.5769653,1.1453247,0.6055298c0.0947266,0.0244141,0.1943359,0.0351563,0.2973633,0.0351563   c0.1549072,0,0.3161621-0.027832,0.4750366-0.0727539c-0.7423096,0.3322754-1.8665771,0.7566528-2.5800171,1.0078125   c-0.5209961,0.1835938-0.7944336,0.7543945-0.6113281,1.2753906c0.012085,0.0343628,0.0383301,0.0578003,0.0537109,0.0899658   c-4.6556396,1.9622803-9.1325073,3.8479614-10.2641602,4.3206787c-2.855957,1.1938477-3.4248047,2.6201172-3.5097656,2.894043   l-0.2036133,0.65625l0.5395508,0.4257813c0.5725098,0.4511108,1.5743408,1.2289429,2.7348633,2.0830078   c0.258606,0.6750488,0.8000488,0.8096313,1.3339233,1.0784302c0.163208,0.0821533,0.2903442,0.1298828,0.3942261,0.1586914   c2.086792,1.451355,4.2653198,2.7894287,5.2987061,2.8580933c0.6210938,0.0415039,1.171875,0.0556641,1.6323242,0.0556641   c0.9130859,0,1.46875-0.0546875,1.5029297-0.0581055l0.1518555-0.0273438   c0.0968628-0.0252686,0.3720093-0.0970459,0.7675781-0.2003174c0.2989502,0.1950073,1.0170288,0.6810303,1.6807251,1.2681274   c0.8636475,0.7639771,0.2325439,2.1257935,0.1660767,3.1555176c-0.0664063,1.0297241,1.2622681,0.5646973,2.258728-0.1660767   s1.262207-4.0523682,1.262207-4.5505981c0-0.3302002-0.6077881-0.6570435-1.0210571-0.8422241   c5.7789307-1.5103149,15.1719971-3.9692993,21.5752563-5.6671753c0.3366089,0.2231445,0.9852295,0.6726074,1.5916748,1.2091064   c0.8636475,0.7639771,0.2325439,2.1257935,0.1660767,3.1555176c-0.0664063,1.0297241,1.2622681,0.5646973,2.258728-0.1660767   s1.262207-4.0523682,1.262207-4.5505981c0-0.3081665-0.532959-0.6156616-0.9401245-0.8059082   c1.3638306-0.3678589,2.2644043-0.6170044,2.4812012-0.6903687c1.7041016-0.5761719,1.96875-1.9799805,1.75-2.7060547   l-1.03125-4.8564453c-0.1865234-0.8774414-0.7509766-1.6123047-1.5478516-2.015625   c-1.2729492-0.6450195-4.331543-2.2026367-5.237793-2.7285156c-0.2702637-0.1566162-1.1499634-0.5543823-2.3765259-1.0874023   c0.0165405-0.0342407,0.0341187-0.0675659,0.050354-0.1020508c0.00354-0.0075684,0.0091553-0.0232544,0.0132446-0.032959   c0.0001831-0.0005493,0.0007324-0.0006714,0.0009155-0.0012207s0.000061-0.0012207,0.0002441-0.00177   c0.0412598-0.0985718,0.1083374-0.302063,0.1986694-0.5996094l1.5740356,0.7136841   c0.3364258,0.1821289,1.1831055,0.5976563,1.9033203,0.5976563c0.394043-0.0004883,0.7509766-0.125,0.9643555-0.480957   c0.4042969-0.6743164,4.4907227-21.4492188,6.2451172-30.4335938l0.9111328-1.7783203   c0.1151733-0.2246094,0.0371704-0.4893799-0.1636353-0.6304932l1.1330566,0.6677246L80.1155396,23.1101685z M74.4403687,26.894104   c0.1049805-0.0483398,0.1464844-0.0297852,0.1601563-0.0429688c0.0245361,0.1313477-0.1755981,0.4595337-0.3842773,0.7659302   l-0.4028931-0.1183472C74.0282593,27.2092285,74.2471924,26.9835815,74.4403687,26.894104z M72.8446655,29.4429321   c0.1119995-0.3951416,0.3143921-0.8584595,0.550354-1.2854614l0.3640137,0.1069336   c-0.197937,0.2744141-0.3705444,0.5252075-0.4456177,0.7307739c-0.2148438,0.590332-0.7412109,2.7539063-0.7412109,3.0458984   c0,0.1738892,0.121521,0.3082886,0.2837524,0.3486328l-0.8707886,0.3322754   C72.4605713,30.8946533,72.781311,29.6655273,72.8446655,29.4429321z M63.4515991,56.2299194l-0.0770264-0.0349731   c0.1417236-0.5375366,0.3032227-1.1584473,0.4780884-1.8358154l0.8191528-0.1567993L63.4515991,56.2299194z M63.8404541,57.5031738   l0.7189331,0.3259888c-0.0349121,0.1165771-0.0667725,0.2211914-0.0942383,0.3079224   c-0.2006226-0.071228-0.4818726-0.1710205-0.8297729-0.2945557L63.8404541,57.5031738z M63.3134766,53.4439697   l-1.9331055,0.3700562l3.3303833-7.788208c0.173645-0.0494385,0.3486328-0.0993652,0.5206909-0.1483765   C64.5281982,48.6745605,63.8572388,51.3253784,63.3134766,53.4439697z M51.0281372,59.3945313   c0.0812378-0.3775024,0.1668701-0.7813721,0.2568359-1.2108765l1.9345703,0.9230957   c-0.1112061,0.4963379-0.2086182,0.9263306-0.2893677,1.2765503L51.0281372,59.3945313z M53.074585,67.8208618   c-0.2069092,0.6099854-0.6342163,1.0164185-0.9544678,0.9077148c-0.3202515-0.1085815-0.4121094-0.6911011-0.2052002-1.3010864   s0.6342163-1.0164185,0.9544678-0.9077759C53.1896362,66.6282959,53.2814941,67.2108765,53.074585,67.8208618z    M40.4501343,53.8955688l0.0728149-0.930603c0.5997925-0.1748657,1.2605591-0.3669434,1.9733887-0.5734253l-0.0338745,0.40271   l-0.3016968,1.9906006L40.4501343,53.8955688z M42.0204468,60.8466797   c-0.0146484-0.0082397-0.0293579-0.0164795-0.0440674-0.0247192l0.0028076-0.0179443   C41.9936523,60.8189697,42.0058594,60.8317261,42.0204468,60.8466797z M40.6062622,51.8994751l0.079834-1.0206299   c0.0922852,0.0856323,0.1872559,0.1691895,0.3031006,0.2315674c0.1870117,0.1005859,0.3828125,0.144043,0.5810547,0.144043   c0.3543091-0.0001831,0.7143555-0.1443481,1.0502319-0.3400879l-0.0344849,0.4102783   C41.8766479,51.5299683,41.2174683,51.7214355,40.6062622,51.8994751z M44.0477905,49.6890259l1.4345703-2.8518677   c-0.1332397,1.5644531-0.2434082,2.871521-0.3148193,3.7419434c-0.6253052,0.1802368-1.2297974,0.3545532-1.8098755,0.5222778   l0.0652466-0.7763062C43.7247925,50.0545654,43.9514771,49.8014526,44.0477905,49.6890259z M43.583374,48.4157104   l0.2358398-2.8057251l1.4453125-0.5515137L43.583374,48.4157104z M47.6382446,50.9085083l-0.0435791,0.5788574   c-0.0097656,0.137207-0.0722656,1.3515625,0.7749023,1.6894531c0.0187378,0.0075073,0.0513306,0.0198364,0.0789795,0.0304565   c-0.0374146,0.2424927-0.0744629,0.4821167-0.1112671,0.7200317c-0.7783203-0.3624878-1.5265503-0.7127686-2.2167358-1.0375977   c-0.0004883-0.0002441-0.0098877-0.0054932-0.0228271-0.0144653c0.0725708-0.5349731,0.1443481-1.0647583,0.2147827-1.5853271   C46.7460327,51.1651611,47.1870728,51.038208,47.6382446,50.9085083z M46.3739624,45.2127686   c0.0050659-0.0592041,0.0101318-0.1185913,0.0152588-0.1782837l0.0117188-0.0233765   C46.3919067,45.0784302,46.3834229,45.1421509,46.3739624,45.2127686z M46.4588013,50.2072754   c0.3427734-2.5388184,0.6363525-4.7296143,0.7939453-5.9075317l0.9089355-0.3468018l-0.4434204,5.8920898   C47.2914429,49.9676514,46.8731079,50.0880737,46.4588013,50.2072754z M63.9863281,37.9144287   c-0.4903564,2.3804932-1.057251,5.071106-1.635498,7.7446899c-0.2055664,0.0586548-0.4118652,0.1174927-0.621521,0.1772461   l1.5338745-7.6459961L63.9863281,37.9144287z M63.7281494,35.8728027l0.7520142-3.7487793l4.4633789,1.4949951   l-0.1349487,0.3151245L63.7281494,35.8728027z M62.9384766,46.5310059   c0.1815796-0.0518188,0.3612061-0.1029663,0.5415649-0.1544189l-1.039917,2.4282837   C62.6063843,48.0543823,62.7728882,47.2944946,62.9384766,46.5310059z M52.234314,53.5283813   c0.0778198-0.3890381,0.1563721-0.7834473,0.2353516-1.1808472l2.0332031,0.921875   c-0.081543,0.3747559-0.1610107,0.7394409-0.2393188,1.0985107C53.5099487,54.055603,52.8232422,53.7716064,52.234314,53.5283813z    M53.8292847,56.3528442c-0.0067139,0.0305786-0.0132446,0.0606689-0.0199585,0.0910645   c-0.0830688-0.0376587-0.1676025-0.0761719-0.2511597-0.1141357l0.1474609-0.0281982   C53.7467041,56.3186035,53.788147,56.3357544,53.8292847,56.3528442z M51.9663086,51.0215454l-0.609436-0.2763672   c0.0205688-0.3029785,0.0415649-0.6116943,0.0626831-0.9219971c0.2745361-0.0786743,0.552002-0.1582031,0.8295288-0.2376709   C52.1542358,50.0681763,52.0599365,50.5471191,51.9663086,51.0215454z M52.0239868,55.6052246l-0.0385742,0.0073853   c-0.0523071-0.0239868-0.104126-0.0475464-0.1564331-0.0715332c0.0010376-0.0050659,0.0020142-0.0100708,0.0030518-0.0151367   C51.8969116,55.5527344,51.9588013,55.5782471,52.0239868,55.6052246z M53.3672485,51.6568604l0.4155884-2.510498   c0.5703125-0.163269,1.1433105-0.3272095,1.7197266-0.4920654c-0.2671509,1.2374878-0.5303345,2.4537964-0.7826538,3.6159668   L53.3672485,51.6568604z M56.3204956,48.4204102c0.0648193-0.0184937,0.1296387-0.0369873,0.194458-0.055542l-0.838623,4.3391113   l-0.2571411-0.1166382C55.7172852,51.2142334,56.0231934,49.7990723,56.3204956,48.4204102z M55.7415771,47.5461426   c-0.5910645,0.1689453-1.1838379,0.338501-1.7780151,0.5084839l1.1159058-6.7414551l2.178833-0.8314209   C56.7822266,42.7078857,56.2593994,45.1439819,55.7415771,47.5461426z M58.0932617,40.163147l0.0073853-0.0028076   l-1.3729858,7.1039429c-0.0558472,0.0159912-0.1124268,0.0321045-0.168396,0.0480957   C57.2070313,44.3046265,57.7831421,41.6138306,58.0932617,40.163147z M56.6312866,53.0303345l0.9612427-4.9734497   c0.4109497-0.1174316,0.8215332-0.2347412,1.2318115-0.3518677c-0.4912109,2.024231-0.9746704,3.9959717-1.4195557,5.7827759   l-0.8083496-0.3665771C56.6087036,53.0911865,56.624939,53.0634155,56.6312866,53.0303345z M57.8051758,46.9564209   l1.3945923-7.2154541l1.6877441-0.644043c-0.5576172,2.354248-1.1757813,4.9401855-1.7926636,7.4912109   C58.6688232,46.7097778,58.2393799,46.8323975,57.8051758,46.9564209z M61.7340088,38.7739258l0.4248047-0.1621094   l-1.5112915,7.5331421c-0.239563,0.0683594-0.4754028,0.1356201-0.7188721,0.2051392   C60.4761963,44.0762939,61.0786133,41.5484619,61.7340088,38.7739258z M61.5081177,46.9389648   c0.2017822-0.0575562,0.4016113-0.114502,0.6022339-0.1717529c-0.4456787,2.0454712-0.8916626,4.0483398-1.3087769,5.8637695   l-0.6035767,1.4094238l-0.1191406,0.0227661L61.5081177,46.9389648z M62.6237183,36.2941895l-2.977417,1.1361694   l1.2570801-6.5043335l2.6211548,0.8779297L62.6237183,36.2941895z M59.9413452,30.6362915l-1.394165,7.2134399   l-3.0895996,1.1789551l1.5568848-9.4052734l2.9386597,0.984314C59.9504395,30.617981,59.9433594,30.6257324,59.9413452,30.6362915z    M54.3759766,39.4414673l-2.3030396,0.8787842c0.3045044-4.3832397,0.6088867-8.6962891,0.8546143-12.0656738l3.1268311,1.0473022   L54.3759766,39.4414673z M53.7590332,41.8170166c-0.4039307,2.0999146-0.8493042,4.3965454-1.2938232,6.6665039   c-0.3258667,0.0933228-0.649292,0.1860962-0.9733887,0.2789307c0.1361694-1.9963989,0.28125-4.1101685,0.428772-6.2438965   L53.7590332,41.8170166z M51.0430908,40.7132568l-1.9411011,0.7406616l1.0308228-13.6964111   c0.6740723-0.3184204,1.30896-0.6182861,1.8947754-0.8948975C51.7418213,30.7132568,51.3683472,36.0224609,51.0430908,40.7132568z    M50.8909912,42.911438c-0.1702271,2.4659424-0.3182983,4.6305542-0.4215698,6.144043   c-0.2197876,0.0629883-0.4375,0.1254272-0.6556396,0.1879883c0.3861084-2.5448608,0.730957-4.8505859,0.9439697-6.281189   L50.8909912,42.911438z M49.9534302,43.2692261c-0.2915039,1.9556274-0.6123657,4.0895996-0.9333496,6.2019653   c-0.1793823,0.0515137-0.3552246,0.1019897-0.53302,0.1530762l0.4490967-5.9668579L49.9534302,43.2692261z M48.8814087,56.2068481   l-0.1309204-0.062439c0.0576172-0.3660889,0.1159058-0.7376709,0.1750488-1.1170044   c0.5658569,0.2633667,1.1677246,0.5422974,1.788208,0.8286743L48.8814087,56.2068481z M50.798584,56.8580322   c-0.0163574,0.0803833-0.0328979,0.161438-0.0490112,0.2404785l-0.3455811-0.164917L50.798584,56.8580322z M49.0455322,54.2565308   c0.006958-0.0444946,0.0137939-0.0894165,0.020752-0.1340942c0.0387573,0.0739746,0.0820313,0.1455078,0.1385498,0.2081299   C49.151123,54.3056641,49.098999,54.281311,49.0455322,54.2565308z M48.8544922,50.559082   c-0.0950317,0.6230469-0.1895142,1.2410889-0.2828369,1.8484497c-0.1942139-0.1827393-0.2435913-0.6462402-0.2289429-0.8649902   l0.0643311-0.8549194C48.5565796,50.6446533,48.7033081,50.602478,48.8544922,50.559082z M48.2178955,54.6975098   c-0.0588379,0.3786011-0.1165161,0.7483521-0.1730957,1.1100464L45.84198,54.7561646   c0.0500488-0.3674927,0.1001587-0.7352295,0.1500244-1.102478C46.5639038,53.9231567,47.3300171,54.28302,48.2178955,54.6975098z    M47.6401978,56.444458l-1.6713867,0.3200073l-0.3746948-0.1947632c0.046875-0.3421021,0.0940552-0.6870117,0.1414795-1.0340576   L47.6401978,56.444458z M47.7885742,57.4342651c-0.0134888,0.0848389-0.0272827,0.171814-0.0405273,0.255127l-0.3478394-0.1808472   L47.7885742,57.4342651z M47.3339233,60.239502c-0.0628052,0.3760986-0.1203003,0.7133789-0.1704102,0.9979248   c-0.550415-0.2852783-1.2564697-0.6591797-2.0632935-1.0912476c0.0463257-0.3319702,0.0938721-0.6743774,0.1425171-1.0252686   L47.3339233,60.239502z M45.3138428,53.0739746c-0.0606079,0.4462891-0.1216431,0.8947144-0.1826782,1.3428955   l-1.9730225-0.9417114l0.1098633-1.3070068c0.5783081-0.1672363,1.1837769-0.342041,1.8157349-0.524231   c-0.0003052,0.0044556-0.0010376,0.0136108-0.0012817,0.0177612   C45.0383301,52.3463135,45.1578979,52.7851563,45.3138428,53.0739746z M43.227417,43.6956177l-0.7770996,0.2965088   l0.99823-2.927124L43.227417,43.6956177z M43.0415039,45.9067383l-0.3103638,3.6919556   c-0.506897,0.4450073-1.0423584,0.755249-1.2678223,0.6308594c-0.449707-0.2416992-0.5556641-1.2490234-0.5395508-1.7612305   l0.6875-2.0158081L43.0415039,45.9067383z M43.571228,58.2415161l0.5737915,0.2921753l0.3927612,0.210083   c-0.0484619,0.3505859-0.0957031,0.690918-0.1420898,1.0240479c-0.4157104-0.2236328-0.8468628-0.4561768-1.2938232-0.6981201   c-0.2008667-0.2089233-0.4064331-0.4217529-0.5990601-0.6236572L43.571228,58.2415161z M44.6019897,63.4902954l0.0046387-0.013916   c0.0325928,0.0328369,0.0596313,0.0604248,0.0925293,0.0935059c-0.1156006,0.0843506-0.2449341,0.1709595-0.3638916,0.24823   C44.449585,63.7139893,44.541748,63.6025391,44.6019897,63.4902954z M42.8563232,55.1464233l0.1421509-0.9168701   l2.0264282,0.9669189c-0.0459595,0.3369751-0.0918579,0.6727905-0.1374512,1.0057983L42.8563232,55.1464233z    M44.9896851,60.9364014c0.7945557,0.4243164,1.4938965,0.7932129,2.031189,1.0693359   c-0.0328979,0.1629028-0.059082,0.2775879-0.0756226,0.3244019c-0.0592651,0.1262817-0.171814,0.2474365-0.3100586,0.3495483   c-0.5490723-0.5507813-1.1040039-1.1130981-1.6550293-1.6749268   C44.9832764,60.9824829,44.9865723,60.9587402,44.9896851,60.9364014z M46.9343872,63.3762207   c0.3041382-0.1881104,0.5552979-0.4413452,0.6895752-0.7277222c0.0184937-0.0393066,0.0455322-0.1416016,0.0801392-0.2994385   c0.1611328,0.0779419,0.2841797,0.1340942,0.3544312,0.1602783c0.4866333,0.1815186,0.9195557,0.3400879,1.2997437,0.3510132   c-0.7281494,0.3070679-1.5535278,0.6550903-2.4481201,1.0322876C46.9532471,63.7307129,46.956543,63.5569458,46.9343872,63.3762207   z M48.3202515,61.8062134c-0.0795898-0.0296021-0.2498169-0.1105347-0.4674072-0.2183228   c0.0513916-0.2802124,0.1091309-0.6083374,0.1724854-0.9785156l1.767395,0.9454346   c-0.0493774,0.1974487-0.0877075,0.3345337-0.1106567,0.3876343C49.524353,62.1655884,49.4237671,62.2178345,48.3202515,61.8062134   z M48.4471436,58.0527954c0.0401611-0.249939,0.0811157-0.5059204,0.1228638-0.7681274l0.5930786-0.1135254l1.4314575,0.6830444   c-0.086792,0.4215088-0.1691895,0.8182373-0.246521,1.1867676L48.4471436,58.0527954z M50.2958374,62.3735962   c0.0320435-0.0455322,0.0848389-0.2098389,0.1539307-0.4673462l0.5161743,0.276123   c-0.2400513,0.1012573-0.5060425,0.2133789-0.7947998,0.335144C50.2131958,62.4718018,50.2561035,62.4302979,50.2958374,62.3735962   z M50.3207397,52.7393188c-0.2852783-0.1176147-0.5862427-0.0821533-0.8389282,0.0506592   c-0.0672607-0.0244751-0.1383057-0.050293-0.1986084-0.0723267c0.1226807-0.7971802,0.2451782-1.5974731,0.3652954-2.3864746   c0.2486572-0.0714111,0.496521-0.1424561,0.7485962-0.2147827c-0.0269165,0.3950195-0.0481567,0.7078247-0.0617065,0.9071045   l-0.0234375,0.3457031l1.4550781,0.659729c-0.0808105,0.4076538-0.1609497,0.8119507-0.2397461,1.2075806   C50.9523926,52.9993286,50.5296021,52.8252563,50.3207397,52.7393188z M51.4421387,57.4290771   c0.0488281-0.2357178,0.0984497-0.4763794,0.1490479-0.7227783l0.6869507-0.1314697   c0.4546509,0.2079468,0.9115601,0.4159546,1.3655396,0.62146c-0.0903931,0.40979-0.1765137,0.7995605-0.2568359,1.1610107   L51.4421387,57.4290771z M53.9133911,59.4378662l1.7285156,0.8247681c-0.1254883,0.4302979-0.222168,0.7305908-0.2811279,0.8619385   c-0.2373047,0.1201172-0.8212891,0.03125-1.1352539-0.0678711l-0.6097412-0.3169556   C53.6984253,60.3861084,53.7979126,59.9507446,53.9133911,59.4378662z M54.0811768,58.6887207   c0.0822144-0.3685913,0.1692505-0.7607422,0.2612305-1.177124c0.628479,0.2827759,1.243103,0.5567627,1.8300781,0.8150635   c-0.1184082,0.4486694-0.2265015,0.8504639-0.3242798,1.2054443L54.0811768,58.6887207z M54.5081787,56.7595825   c0.0085449-0.0388184,0.0166016-0.0754395,0.0252075-0.114563c0.6251221,0.2595825,1.2509766,0.5200195,1.8746338,0.7799683   c-0.0140991,0.0543823-0.0288086,0.1118164-0.0427246,0.1652832   C55.7776489,57.3299561,55.1538086,57.0507202,54.5081787,56.7595825z M55.5969849,54.9212036   c-0.2131348-0.088562-0.4224854-0.175415-0.6289063-0.2610474c0.0767822-0.3518677,0.1549072-0.7105713,0.2339478-1.0737305   l1.9564819,0.887085c-0.0130005,0.0518188-0.0262451,0.1047974-0.0391235,0.15625L55.5969849,54.9212036z M58.4697876,58.286438   c-0.005249,0.0632324-0.0106201,0.1299438-0.013916,0.213501c-0.4287109-0.182251-0.8943481-0.3831787-1.4039307-0.6067505   c0.0151367-0.0570068,0.0319214-0.121521,0.0473633-0.1798096C57.5618896,57.9064941,58.019043,58.0976563,58.4697876,58.286438z    M56.8546753,58.6251831c0.590271,0.2566528,1.1436157,0.493042,1.6365356,0.6972046   c0.0422363,0.317627,0.1309814,0.6477661,0.2837524,0.9435425c-0.0022583,0.0032349-0.005249,0.0100708-0.0074463,0.0129395   c-0.6782227,0.3881836-1.3242188,0.019043-1.3813477-0.0126953l-0.8724976-0.4164429   C56.6156006,59.4957275,56.7305908,59.081665,56.8546753,58.6251831z M57.6218262,55.7044678   c0.0142212-0.0557251,0.0269165-0.1040039,0.0413818-0.1605225l1.3051758-0.2498169l0.5800781,0.2630005l-0.3095703,0.7229004   C58.7123413,56.0927124,58.1698608,55.8995972,57.6218262,55.7044678z M59.0269165,54.2233887l-0.9238281-0.4189453   c0.4516602-1.8016968,0.9724731-3.9237671,1.5561523-6.3378296c0.2564697-0.0731812,0.5116577-0.1460571,0.7670898-0.2189331   L59.0269165,54.2233887z M59.6849976,59.7982178c0.2643433,0.0996094,0.4849854,0.1763916,0.6652832,0.2322388   c-0.2047729,0.0782471-0.3765869,0.1036377-0.4748535,0.0404053c-0.0829468-0.0534058-0.1469116-0.1401367-0.2021484-0.239624   C59.6772461,59.8197632,59.6810303,59.8098145,59.6849976,59.7982178z M59.911438,59.0964355   c0.0181885-0.0594482,0.0366211-0.119812,0.0552368-0.1817627c0.3521729,0.1481934,0.6920776,0.291687,1.0270996,0.4332275   c-0.0709229,0.0152588-0.1452026,0.0258789-0.2252808,0.0300903C60.6514282,59.367981,60.3418579,59.2624512,59.911438,59.0964355z    M60.5651855,56.751709c0.055481-0.213501,0.1116333-0.4315186,0.1688232-0.6570435l1.6890259,0.7658081   c-0.0499878,0.1862793-0.0956421,0.3547974-0.1364136,0.5030518C61.7648926,57.1781616,61.1860352,56.9724731,60.5651855,56.751709   z M60.9797974,55.1089478c0.0170898-0.069458,0.0341797-0.1393433,0.0513916-0.2097168l2.0065308-0.3840942   c-0.1288452,0.4985962-0.2478027,0.9558716-0.3553467,1.3659058L60.9797974,55.1089478z M65.2169189,44.8421631   l0.6641846-1.5531616c-0.1230469,0.491333-0.2459717,0.9810181-0.3684082,1.4688721   C65.4147949,44.7857666,65.3166504,44.8137817,65.2169189,44.8421631z M63.9870605,45.192627   c-0.263855,0.0751953-0.536377,0.1528931-0.8094482,0.2307129c0.5892944-2.7419434,1.1564941-5.4680176,1.6394653-7.8258667   l2.7454834-1.0476685c-0.0574951,0.2313843-0.1156616,0.4650879-0.1742554,0.7007446L63.9870605,45.192627z M67.739502,38.9429321   l1.2573853-2.9404907l1.5103149-0.5762939c-0.6345215,2.4394531-1.4252319,5.4769897-2.2283936,8.5440063   c-0.578125,0.1645508-1.2233887,0.3483276-1.9331055,0.5504761C66.8575439,42.479126,67.343689,40.5319214,67.739502,38.9429321z    M70.2761841,33.0108032l1.2052002-2.8183594l0.5906372-0.7667236c-0.1339111,0.5007935-0.477417,1.8190918-0.9468994,3.6244507   l-0.3419189,0.1304932L70.2761841,33.0108032z M54.8505249,24.1148071c0.1674805-0.3826904,0.3288574-0.8198242,0.4503174-1.272644   l16.7832031,4.9302368l-1.4332275,1.8599854l-1.3123169,3.0643311l-16.3355103-5.4714355   c0.0224609-0.3045654,0.0441895-0.5981445,0.0653687-0.8826904c0.4144897-0.2679443,0.5894775-0.795105,0.3729858-1.2531738   c-0.0618896-0.1311035-0.1504517-0.2394409-0.2537231-0.328125c0.085022-1.1105347,0.1536865-1.9633179,0.2009277-2.480896   l0.9431152,0.2770386c-0.0942993,0.3621826-0.2161865,0.743042-0.3971558,1.1564941   c-0.2729492,0.6225586-0.0991211,2.5556641-0.0395508,3.1328125c0.0283203,0.2744141,0.2802734,0.465332,0.5488281,0.4462891   c0.2749023-0.0288086,0.4746094-0.2744141,0.4462891-0.5488281C54.7807007,25.6885376,54.7391968,24.3804321,54.8505249,24.1148071   z M54.2489624,20.6074829c0.0112305,0.0063477,0.050293,0.0439453,0.097168,0.1376953   c0.1333008,0.2666016,0.1637573,0.6398315,0.123291,1.0710449l-0.9483032-0.2785645   C53.6965332,21.081665,54.0941772,20.6164551,54.2489624,20.6074829z M52.1647949,19.0626831l1.0803833,0.798584h0.3154907   c-0.4578247,0.3202515-0.833313,0.8937378-1.0112915,1.3909302l-1.5231323-0.4474487L52.1647949,19.0626831z    M49.6288452,22.9429321l0.9837036-1.505188c0.034668,0.0258179,0.0725098,0.0484009,0.116394,0.0613403l1.68573,0.4951782   c-0.0501709,0.5180664-0.1245117,1.4233398-0.21521,2.5957031c-0.0294189,0.0106201-0.0603027,0.0083008-0.0891724,0.0219116   c-0.7871094,0.3716431-2.0560913,0.9709473-3.6362915,1.7174072L49.6288452,22.9429321z M47.7858887,28.866394   c0.5377808-0.2541504,1.0635376-0.5026245,1.5668335-0.7403564l-1.0252075,13.6234131l-0.527832,0.201416   c-0.0341187-0.1367798-0.1196289-0.2595215-0.2553101-0.3277588c-0.2490234-0.1235352-0.5478516-0.0229492-0.6713867,0.2231445   l-0.2536621,0.5065918C47.0733643,37.0734863,47.5901489,31.1195679,47.7858887,28.866394z M45.1205444,30.1261597   c0.4089966-0.1933594,0.8115234-0.383667,1.2086792-0.5713501l-1.5393066,4.5050049L45.1205444,30.1261597z M46.8364258,31.1309814   c-0.258728,2.9815674-0.651062,7.5115356-0.9998169,11.5689697l-1.831604,0.6989136l0.4423218-5.2624512L46.8364258,31.1309814z    M44.3370972,30.496521l-0.545166,6.4841309l-2.5537109,7.473999l-0.0512085,0.0195313l1.0142822-12.9677124   C42.9234619,31.164917,43.6364136,30.8277588,44.3370972,30.496521z M41.4197998,31.8760376l-1.0081787,12.8939819   l-1.6083374,0.6137695l0.9622192-12.7252197C40.3189087,32.3967285,40.8712158,32.135437,41.4197998,31.8760376z    M40.0325317,49.6190186l-0.1958618,2.5050049c-0.1112671,0.0325317-0.2186279,0.0639648-0.3252563,0.0952148l0.4815063-5.149231   l0.2462158-0.0939331l-0.0407715,0.5218506l-0.2443237,0.7150269l-0.0258789,0.1318359   C39.9213867,48.4562988,39.8996582,49.0161133,40.0325317,49.6190186z M39.7532959,53.1898193l-0.0661621,0.8464355   c-0.1116333-0.0505981-0.2265625-0.1073608-0.3319092-0.1467896l0.0560303-0.5994873   C39.5202026,53.2579956,39.6384277,53.2234497,39.7532959,53.1898193z M38.9998169,57.6900635   c0.0283203,0.0155029,0.055481,0.0303955,0.0839233,0.0458984c0.0872803,0.0968018,0.1724854,0.1915894,0.267395,0.2953491   l-0.3901978,0.074707L38.9998169,57.6900635z M38.7418213,52.4453125c-0.1665039,0.0490723-0.333252,0.0982666-0.4832764,0.1427002   l0.3781128-5.0004883l0.5755615-0.2196045L38.7418213,52.4453125z M38.9852295,33.02771l-0.9567871,12.6517334   l-1.8355103,0.7003784l0.8555298-12.4355469C37.6923218,33.6395264,38.338562,33.3336792,38.9852295,33.02771z    M37.7244873,56.1367798c-0.7634888-0.4189453-1.4870605-0.8167725-2.1224976-1.1669922l0.0542603-0.7886353   c0.0941162,0.0053711,0.1918335,0.0171509,0.2826538,0.0171509c0.3491211,0,0.6699219-0.0415039,0.9375-0.1416016   c0.0739746-0.027771,0.2614746-0.0874023,0.5313721-0.170166l-0.0145264,0.1920166   c-0.1530762,0.1665039-0.2634888,0.3703613-0.3059082,0.6046143   C37.0396729,54.9488525,37.0061035,55.1982422,37.7244873,56.1367798z M37.4885864,52.8180542   c-0.5059814,0.1524658-0.8499146,0.2595825-0.9632568,0.302124c-0.1997681,0.0750732-0.4801025,0.092041-0.8011475,0.0731812   l0.3087158-4.4871216c0.4113159-0.1749878,0.7365723-0.3640747,0.9020996-0.4693604l0.9268188-0.3536377L37.4885864,52.8180542z    M34.1428833,35.3200073c0.7001953-0.331604,1.4120483-0.6687012,2.1286621-1.0079346l-0.8586426,12.4776611   c-0.3873901,0.1850586-0.8711548,0.3562012-1.2435303,0.3065186c-0.1258545-0.0274658-0.3896484-0.1257324-0.7445068-0.2709961   L34.1428833,35.3200073z M35.2630005,48.9682617L34.9788818,53.09729c-0.62677-0.1146851-1.3092041-0.3082886-1.9133911-0.5142822   l0.2297363-3.6810913c0.2481689,0.0884399,0.4542236,0.1538696,0.5704346,0.1704102   c0.1425781,0.0205078,0.2856445,0.0297852,0.4277344,0.0297852C34.6282959,49.1021118,34.9549561,49.0474243,35.2630005,48.9682617   z M24.2704468,42.5581055c-0.8786621-0.4266968-1.7639771-0.8591919-2.6342773-1.2875366   c0.4627686-0.2261963,1.3858032-0.6687622,2.6342773-1.2640991V42.5581055z M27.1724854,43.9561157   c-0.6989746-0.3338013-1.4193115-0.6800537-2.1520386-1.0344238v-3.272644   c0.7276611-0.3464966,1.5403442-0.7329102,2.4221802-1.1517944L27.1724854,43.9561157z M29.859375,45.225769   c-0.6137085-0.2863159-1.267334-0.5940552-1.9533691-0.9199829l0.305603-6.173645   c0.6414795-0.3045654,1.312561-0.6229858,2.0084839-0.9530029L29.859375,45.225769z M30.5945435,45.5673218l0.392395-8.7518311   c0.7712402-0.3656006,1.5671387-0.7427979,2.3811035-1.128418l-0.6757202,10.8277588   C32.1159058,46.2633667,31.4041138,45.9413452,30.5945435,45.5673218z M32.4815063,56.3493042   c0.5029907,0.2824097,2.0146484,1.1311646,3.8356323,2.1538696c-0.2333984-0.007019-0.5279541-0.0210571-0.9299927-0.0509644   c-1.5742188-0.1162109-2.5742188-0.9350586-2.5830078-0.9423828c-0.0941162-0.0793457-0.2088013-0.1118164-0.3226318-0.1118164   V56.3493042z M37.6044312,64.7217407c-0.0620117,0.1137695-0.2382813,0.3588867-0.6166992,0.2929688   c-0.3249512-0.0820923-2.2449341-1.1708374-4.5611572-2.5296631c0.0280151-0.0627441,0.0549316-0.1271973,0.0549316-0.2029419   v-1.6745605c1.5401611,0.9926758,3.6107788,2.3152466,5.199585,3.2868042L37.6044312,64.7217407z M37.7583008,63.0606689   c-1.5714111-0.97229-3.5935059-2.2591553-5.0737915-3.2139282c-0.0628052-0.0405273-0.1331177-0.0529175-0.2030029-0.0527954   v-1.2896118c0.2993774,0.196106,0.7982178,0.473877,1.468811,0.6828613   c0.9857178,0.6036377,2.4697266,1.5095825,3.9445801,2.3990479L37.7583008,63.0606689z M37.9719238,60.7549438   c-0.6950684-0.4197998-1.4065552-0.8516846-2.0952148-1.2709961c0.2880859,0.015564,0.5436401,0.0258789,0.7389526,0.0258789   c0.4204102,0,0.6479492-0.0332031,0.7841797-0.0869141l0.4138184-0.0792236   c0.0914307,0.0513306,0.1828003,0.1027832,0.2747192,0.1543579L37.9719238,60.7549438z M38.2039185,58.2509766   l-0.5997314,0.1148071c-2.1812134-1.2250977-4.1158447-2.3115845-4.7336426-2.6586914l0.1304932-2.0908813   c0.5534058,0.180603,1.2331543,0.3687744,1.9090576,0.4811401l-0.0893555,1.2982178l0.2094727,0.1157227   c0.1599731,0.0880737,1.4990234,0.8261108,3.2615967,1.7913208L38.2039185,58.2509766z M38.1750488,53.6923218l0.0028687-0.0380859   c0.1422729-0.0424194,0.3021851-0.0897217,0.4646606-0.1377563l-0.0177002,0.1905518   C38.4661865,53.6871948,38.3129272,53.6766357,38.1750488,53.6923218z M40.7855835,63.8574829   c-0.2304688,0.3051758-0.5537109,0.5932617-0.6430664,0.597168c-0.1628418-0.0533447-0.8085327-0.4296875-1.6850586-0.9644775   l0.1386108-1.4818726c0.8209839,0.493042,1.6029053,0.9579468,2.2659302,1.3450928L40.7855835,63.8574829z M40.9828491,62.5561523   c-0.670105-0.3952026-1.461792-0.868042-2.3091431-1.3781128l0.1199951-1.2838135   c0.8146362,0.4576416,1.62677,0.9138794,2.3891602,1.3422241L40.9828491,62.5561523z M41.3030396,60.4436035   c-0.7545776-0.4240112-1.5522461-0.8720703-2.3471069-1.3185425l1.1967163-0.229126   c0.3536377,0.3764648,0.7571411,0.7993774,1.1948853,1.2542114L41.3030396,60.4436035z M41.1415405,57.0044556l0.6338501,0.3227539   l-0.0374756,0.2471924l-0.0502319,0.0096436C41.5065918,57.3916626,41.3093262,57.1846924,41.1415405,57.0044556z    M42.8695679,63.6192017c-0.1192017-0.0429077-0.5696411-0.2940063-1.2224731-0.673584l0.206604-1.3322754   c0.7841797,0.4406738,1.4873657,0.8359985,2.0498047,1.1523438c0.0197754,0.0200195,0.0402222,0.0406494,0.0601807,0.060791   c-0.017334,0.1199341-0.0348511,0.2415161-0.0511475,0.3532715C43.7406616,63.4072876,43.1747437,63.6983032,42.8695679,63.6192017   z M29.5949097,73.9920654l-0.0065918,0.5557251c-0.2409668-0.182373-0.4810181-0.3652344-0.7182617-0.5482178   c0.15625-0.1428833,0.3723145-0.3086548,0.6434937-0.4837646c0.1165161,0.0627441,0.2723999,0.1486206,0.4574585,0.2561035   L29.5949097,73.9920654z M31.6243896,76.0477905c0.0031738-0.3434448-0.0172119-0.7288208-0.2772827-1.0869141   c-0.2623291-0.3612061-1.0082397-0.7042236-1.0082397-0.7042236s-0.2592773,0.1418457-0.4987183,0.4807129   c-0.0514526-0.0386963-0.1029053-0.0772705-0.1542358-0.1160889c0.0623169-0.1060181,0.15271-0.2331543,0.2750854-0.3306274   c0.1367188-0.1089478,0.2896729-0.2091064,0.4052124-0.2808838c0.2706909,0.1676025,0.5637817,0.359314,0.8516235,0.571167   c0.4991455,0.3673706,0.5741577,0.949585,0.5465698,1.5670166C31.7178345,76.1147461,31.6711426,76.0812988,31.6243896,76.0477905z    M33.1989136,77.1483154c0.1904297,0.0321655,0.4118042-0.2810059,0.4962158-0.7063599   c0.085144-0.428772-0.0011597-0.8071289-0.192627-0.8451538c-0.1915283-0.0380249-0.4157104,0.2787476-0.5008545,0.7074585   c-0.0637817,0.3214111-0.031311,0.6143799,0.0696411,0.757019c-0.1572266-0.1072388-0.31604-0.2162476-0.4778442-0.3286743   c-0.0054321-0.1716919,0.0056152-0.354248,0.0526123-0.548645c0.1550293-0.6411133,0.5535889-1.0948486,0.8901978-1.0134277   c0.3366089,0.0812988,0.4837646,0.6671143,0.3286743,1.3082275c-0.0864868,0.3575439-0.2506714,0.6436768-0.4356079,0.8243408   C33.352478,77.2514648,33.2771606,77.201416,33.1989136,77.1483154z M44.8652344,84.3481445   c-0.2149048,0.6335449-0.6586914,1.0556641-0.991333,0.9428101c-0.3325806-0.112793-0.4280396-0.7178345-0.2131348-1.3513794   s0.6587524-1.0556641,0.991333-0.9428101C44.9847412,83.1095581,45.0801392,83.7145996,44.8652344,84.3481445z    M57.5014038,72.6655884c-0.5410156,0.2529297-2.3261719,0.6958008-3.3237305,0.9155273   c-0.5395508,0.1186523-0.8803711,0.6523438-0.7617188,1.1914063c0.0611572,0.2787476,0.2397461,0.493103,0.4660034,0.6297607   c-5.5245972,1.4490356-10.9851685,2.8759155-14.3893433,3.7637939c-0.2714844,0.0205078-1.2993164,0.0849609-2.7299805-0.0087891   c-0.4447021-0.041687-1.6209717-0.7150879-3.0966187-1.6952515c0.0661011-0.0531006,0.1339111-0.1040039,0.1971436-0.15979   c0.9139404-0.8056641,0.8813477-4.0909424,0.8373413-4.5802002c-0.0440674-0.4893799-1.4580688-0.8552856-1.4580688-0.8552856   l-1.4693604,0.5737915c3.2327271-1.3583984,12.0942383-5.0942993,17.3561401-7.3131104l-0.0723877,0.7093506   c0,0,0.1484375-0.3117065,0.4123535-0.4857178c0.1425171-0.0939941,0.3000488-0.1780396,0.4187012-0.2377319   c0.2485962,0.1867065,0.5168457,0.3988037,0.7782593,0.6300659c0.831543,0.7355347,0.223877,2.0466919,0.1599121,3.038147   c-0.0639648,0.991394,1.215332,0.5437012,2.1746826-0.1599121c0.9594116-0.7036133,1.215271-3.9016724,1.215271-4.3813477   c0-0.3284912-0.6235962-0.6530151-1.020752-0.8275146c0.0003052-0.0001221,0.0048828-0.0020752,0.0048828-0.0020752   l-0.1431885-0.3394775l1.2037354,0.612915l0.1938477,0.074707c1.3286133,0.3574219,2.9155273,0.8662109,3.546875,1.1630859   c0.050293,0.6816406,0.1274414,2.1601563,0.1918945,3.3955078c0.1186523,2.2661133,0.1796875,3.3554688,0.2290039,3.8637695   C58.1820679,72.347229,57.7035522,72.5708618,57.5014038,72.6655884z M70.6981201,77.4866943   c-0.2149048,0.6335449-0.6586914,1.0556641-0.991333,0.9428101c-0.3325806-0.112793-0.4280396-0.7178345-0.2131348-1.3513794   s0.6587524-1.0556641,0.991333-0.9428101C70.817627,76.2481079,70.9130249,76.8531494,70.6981201,77.4866943z    M66.3544312,61.6953735c0.9160156,0.53125,3.7368164,1.9711914,5.3374023,2.7822266   c0.2548828,0.1289063,0.4355469,0.3652344,0.4956055,0.6469727l1.050293,4.9326172   c0.0004883,0.0014648-0.015625,0.171875-0.4541016,0.3198242c-0.5566406,0.1885376-6.5109863,1.7680054-13.4708862,3.598877   c0.6955566-0.421875,1.2961426-1.0015259,1.1119995-1.8713379c-0.0463867-0.2983398-0.1547852-2.375-0.2338867-3.8916016   c-0.1499023-2.8637695-0.2016602-3.737793-0.2573242-4.0107422c-0.1069336-0.5299072-0.2254028-1.0787964-4.6821899-2.2987061   c0.2276611-0.0271606,0.4490356-0.0825195,0.6226196-0.22229c0.074707-0.0601196,0.2181396-0.4380493,0.4241333-1.1054688   l0.732605,0.3496094c0.027832,0.0170898,0.4741211,0.2802734,1.0820313,0.2802734   c0.3115234,0,0.6650391-0.0688477,1.0263672-0.2753906c0.0306396-0.0174561,0.06427-0.0543823,0.0999146-0.1038818   c0.0341797,0.0264893,0.0582275,0.0614624,0.0953979,0.0853271c0.2119141,0.1362305,0.4418945,0.1928711,0.6782227,0.1928711   c0.6310425,0,1.3048706-0.4036865,1.8005981-0.7821045c0.3291626,0.0941772,0.8338623,0.2142334,1.2692261,0.2142334   c0.1807861,0,0.3418579-0.0366821,0.4943848-0.0889282C65.0613403,61.0861816,66.1010132,61.5484009,66.3544312,61.6953735z    M64.8390503,56.8590698l-0.4783936-0.2169189l0.9916992-1.6412964   C65.1578979,55.7149048,64.9851685,56.3406372,64.8390503,56.8590698z M64.1282349,53.2879639   c0.5787964-2.2572632,1.2689819-4.989563,1.9365234-7.6478882c0.6533813-0.1860962,1.296936-0.3693237,1.9196777-0.5466309   c-0.6292725,2.399292-1.253479,4.7662354-1.8042603,6.8311157c-0.1046753,0.0375366-0.2000732,0.1035156-0.2617798,0.2063599   l-0.553894,0.9203491L64.1282349,53.2879639z M68.8510132,58.4341431   c-0.1801758,0.0942383-0.9511719-0.1333008-1.5874023-0.4755859l-1.736084-0.7872925   c0.2374268-0.8356934,0.5463257-1.961853,0.9088745-3.3067017l2.8452759-0.5446777   c0.2709961-0.0522461,0.4487305-0.3139648,0.3969727-0.5854492c-0.0522461-0.2709961-0.315918-0.4477539-0.5854492-0.3969727   l-2.3684082,0.4534302c0.0097656-0.036377,0.0197754-0.0738525,0.0296021-0.1104736l0.0204468-0.0338745   c0.052124-0.0865479,0.0657959-0.1817017,0.0623169-0.2755737c0.5785522-2.164978,1.2576294-4.7399292,1.9850464-7.5159302   c0.9146729-0.2602539,1.7921143-0.5098267,2.6113281-0.7426758c0.265625-0.0756836,0.4199219-0.3520508,0.3442383-0.6176758   c-0.0756836-0.2651367-0.3510742-0.4194336-0.6176758-0.3442383c-0.1812744,0.0515137-0.9194336,0.2614136-2.0438232,0.5813599   c0.7277222-2.7811279,1.4946899-5.725769,2.2509155-8.6337891l2.4412842-0.9315796   C71.6553345,45.0984497,69.119873,57.7299805,68.8510132,58.4341431z M74.2249756,32.0481567   c-0.1790771-0.0359497-0.3654785-0.0409546-0.5487671,0.0285645l-0.4223022,0.1611328   c0.0353394-0.0545044,0.0623169-0.1150513,0.0678101-0.1835938c0.019043-0.2373047,0.4780273-2.2021484,0.6962891-2.8022461   c0.0571289-0.1552734,0.284668-0.4663086,0.4853516-0.7407227c0.0057373-0.0078125,0.0112305-0.0154419,0.0169067-0.0232544   l0.380249,0.1116943C74.6846313,29.7047119,74.458374,30.8596802,74.2249756,32.0481567z M75.953064,26.3023071   l-0.8126831,1.5861816l-0.1679077-0.0493164c0.270813-0.425415,0.4459229-0.8248901,0.3536377-1.177002   c-0.0385742-0.1479492-0.1420898-0.3496094-0.4130859-0.4731445c-0.0821533-0.0373535-0.1901245-0.0696411-0.3185425-0.0753174   l0.5758667-0.8421631c0.0065308-0.0095825,0.0072021-0.020874,0.0130005-0.0307617l0.0490112,0.0345459l1.3578491,0.8001709   C76.3511963,25.9755249,76.0726929,26.0686035,75.953064,26.3023071z"></path><path d="M56.2169189,16.8345947c-0.0880737,0.2593384-0.0757446,1.0282593-0.0757446,1.0282593l18.0195313,4.6196289   c0,0,0.0686646-0.8080444,0.1567383-1.0673828c0.2214355-0.6519775,0.5355835-0.8210449,0.5355835-0.8210449l-18.1026611-4.5790405   C56.7441406,16.0184326,56.4360962,16.189209,56.2169189,16.8345947z"></path><path d="M68.2927246,75.7244873c-0.2321777-0.3887329-0.9544067-0.8029785-0.9544067-0.8029785   s-1.0031128,0.4159546-1.0768433,1.8901978c-0.0737305,1.4741821,0.6449585,1.6585083,1.3267822,2.0823364   c0.6818848,0.4238281,0.7936401,0.1879883,0.7936401,0.1879883s-0.1011963-0.2907715-0.1580811-0.493042   c-0.1105957-0.3931274,0.1906128-1.1675415,0.2316895-1.5545044C68.496521,76.647522,68.5646362,76.1799316,68.2927246,75.7244873z   "></path><path d="M70.4121704,76.5628662c-0.1899414-0.0558472-0.4452515,0.2437134-0.5702515,0.6690674   c-0.124939,0.425354-0.0722046,0.8154297,0.1177979,0.8712769c0.1900024,0.0557861,0.4453125-0.2437744,0.5702515-0.6691284   S70.6021729,76.6186523,70.4121704,76.5628662z"></path><path d="M42.4598389,82.5859985c-0.2321777-0.3887939-0.9544067-0.8029785-0.9544067-0.8029785   s-1.0031128,0.4159546-1.0768433,1.8901367c-0.0737305,1.4742432,0.6449585,1.6585083,1.3268433,2.0823975   c0.6818237,0.4238281,0.7936401,0.1879272,0.7936401,0.1879272s-0.1012573-0.2907104-0.1581421-0.492981   c-0.1105957-0.3931274,0.1906128-1.1675415,0.2316895-1.5545044   C42.6636353,83.5089722,42.7318115,83.0413818,42.4598389,82.5859985z"></path><path d="M44.5793457,83.4243164c-0.1900024-0.0557861-0.4453125,0.2437744-0.5702515,0.6691284   c-0.125,0.425354-0.0722656,0.8154297,0.1177368,0.8712158c0.1900024,0.0558472,0.4453125-0.2437134,0.5702515-0.6690674   S44.7692871,83.4801636,44.5793457,83.4243164z"></path><path d="M50.9153442,67.385498c0.0394897-0.3726196,0.1051025-0.8228149-0.1567383-1.2612915   c-0.2235107-0.3742676-0.9189453-0.7731323-0.9189453-0.7731323s-0.9657593,0.4005127-1.0367432,1.8198853   c-0.0709839,1.4194336,0.6209717,1.5968628,1.2774658,2.0049438c0.6564941,0.40802,0.7640991,0.1809692,0.7640991,0.1809692   s-0.0974731-0.2799683-0.1522217-0.4746704C50.5858154,68.5036621,50.8757935,67.7580566,50.9153442,67.385498z"></path><path d="M52.3635864,68.4144287c0.1829224,0.053772,0.428772-0.2346802,0.5490723-0.6442261   s0.069519-0.7850952-0.1134033-0.8388062c-0.1829224-0.053772-0.4287109,0.2346802-0.5490112,0.6442261   S52.1806641,68.3607178,52.3635864,68.4144287z"></path></g></svg>