<svg xmlns="http://www.w3.org/2000/svg" xmlns:xlink="http://www.w3.org/1999/xlink" version="1.1" x="0px" y="0px" viewBox="0 0 96 96" enable-background="new 0 0 96 96" xml:space="preserve"><g><path d="M53.49,7.5H42.51c-8.612,0-15.619,7.008-15.619,15.621v8.129h3v-8.13c0-6.959,5.661-12.621,12.619-12.621h10.98   c6.958,0,12.619,5.662,12.619,12.621v8.13h3v-8.129C69.109,14.508,62.102,7.5,53.49,7.5z"></path><rect x="35.996" y="75.008" width="7.336" height="7.336"></rect><rect x="27.66" y="66.672" width="7.336" height="7.336"></rect><rect x="35.996" y="83.344" width="7.336" height="5.156"></rect><rect x="27.66" y="50" width="7.336" height="7.336"></rect><rect x="35.996" y="66.672" width="7.336" height="7.336"></rect><rect x="44.332" y="75.008" width="7.336" height="7.336"></rect><rect x="27.66" y="58.336" width="7.336" height="7.336"></rect><rect x="44.332" y="83.344" width="7.336" height="5.156"></rect><rect x="35.996" y="58.336" width="7.336" height="7.336"></rect><rect x="35.996" y="33.426" width="7.336" height="7.238"></rect><rect x="44.332" y="66.672" width="7.336" height="7.336"></rect><rect x="35.996" y="41.664" width="7.336" height="7.336"></rect><rect x="35.996" y="50" width="7.336" height="7.336"></rect><polygon points="26.66,50 18.472,50 19.302,57.336 26.66,57.336  "></polygon><polygon points="26.66,33.426 16.593,33.426 17.413,40.664 26.66,40.664  "></polygon><rect x="27.66" y="33.426" width="7.335" height="7.238"></rect><polygon points="26.66,58.336 19.415,58.336 20.245,65.672 26.66,65.672  "></polygon><rect x="27.66" y="75.008" width="7.336" height="7.336"></rect><rect x="27.66" y="41.664" width="7.335" height="7.336"></rect><polygon points="18.358,49 26.661,49 26.661,41.664 17.527,41.664  "></polygon><rect x="27.66" y="83.344" width="7.336" height="5.156"></rect><polygon points="22.133,82.344 26.661,82.344 26.661,75.008 21.303,75.008  "></polygon><polygon points="26.659,66.672 20.357,66.672 21.189,74.008 26.659,74.008  "></polygon><polygon points="22.83,88.5 26.66,88.5 26.66,83.344 22.247,83.344  "></polygon><rect x="61.004" y="33.426" width="7.336" height="7.238"></rect><polygon points="69.34,82.344 73.868,82.344 74.697,75.008 69.34,75.008  "></polygon><rect x="61.004" y="75.008" width="7.336" height="7.336"></rect><polygon points="69.339,88.5 73.169,88.5 73.753,83.344 69.339,83.344  "></polygon><rect x="61.004" y="50" width="7.336" height="7.336"></rect><rect x="61.004" y="58.336" width="7.336" height="7.336"></rect><rect x="61.004" y="66.672" width="7.336" height="7.336"></rect><rect x="44.332" y="58.336" width="7.336" height="7.336"></rect><polygon points="69.34,49 77.643,49 78.476,41.664 69.34,41.664  "></polygon><polygon points="69.34,33.426 69.34,40.664 78.586,40.664 79.407,33.426  "></polygon><polygon points="69.34,74.008 74.811,74.008 75.644,66.672 69.34,66.672  "></polygon><polygon points="69.34,65.672 75.755,65.672 76.586,58.336 69.34,58.336  "></polygon><polygon points="69.34,57.336 76.7,57.336 77.529,50 69.34,50  "></polygon><rect x="61.004" y="41.664" width="7.336" height="7.336"></rect><rect x="52.668" y="75.008" width="7.336" height="7.336"></rect><rect x="44.332" y="33.426" width="7.336" height="7.238"></rect><rect x="52.668" y="83.344" width="7.336" height="5.156"></rect><rect x="44.332" y="50" width="7.336" height="7.336"></rect><rect x="44.332" y="41.664" width="7.336" height="7.336"></rect><rect x="52.668" y="58.336" width="7.336" height="7.336"></rect><rect x="52.668" y="33.426" width="7.336" height="7.238"></rect><rect x="52.668" y="41.664" width="7.336" height="7.336"></rect><rect x="52.668" y="66.672" width="7.336" height="7.336"></rect><rect x="61.004" y="83.344" width="7.336" height="5.156"></rect><rect x="52.668" y="50" width="7.336" height="7.336"></rect></g></svg>