<svg xmlns="http://www.w3.org/2000/svg" xmlns:xlink="http://www.w3.org/1999/xlink" version="1.1" x="0px" y="0px" viewBox="0 0 80 80" style="enable-background:new 0 0 80 80;" xml:space="preserve"><style type="text/css">
	.st0{display:none;}
	.st1{display:inline;}
</style><g><path d="M60,24.5996H49.4004V22c0-5.1836-4.2168-9.4004-9.4004-9.4004S30.5996,16.8164,30.5996,22v2.5996H20   c-0.2207,0-0.4004,0.1797-0.4004,0.4004v42c0,0.2207,0.1797,0.4004,0.4004,0.4004h40c0.2207,0,0.4004-0.1797,0.4004-0.4004V25   C60.4004,24.7793,60.2207,24.5996,60,24.5996z M31.4004,22c0-4.7422,3.8574-8.5996,8.5996-8.5996S48.5996,17.2578,48.5996,22   v2.5996H31.4004V22z M59.5996,66.5996H20.4004V25.4004h10.1992V34c0,0.2207,0.1797,0.4004,0.4004,0.4004   S31.4004,34.2207,31.4004,34v-8.5996h17.1992V34c0,0.2207,0.1797,0.4004,0.4004,0.4004S49.4004,34.2207,49.4004,34v-8.5996h10.1992   V66.5996z"></path></g></svg>