<?xml version="1.0" encoding="utf-8"?>
<!-- Generator: Adobe Illustrator 26.0.1, SVG Export Plug-In . SVG Version: 6.00 Build 0)  -->
<svg version="1.1" id="Layer_1" xmlns="http://www.w3.org/2000/svg" xmlns:xlink="http://www.w3.org/1999/xlink" x="0px" y="0px"
	 viewBox="0 0 352.5 37.9" style="enable-background:new 0 0 352.5 37.9;" xml:space="preserve">
<g>
	<polygon points="9.5,0.9 0,0.9 0,37 24.7,37 24.7,29.6 9.5,29.6 	"/>
	<path d="M44.8,0c-5.7,0-10.3,1.7-13.7,5.1C27.7,8.5,26,13.2,26,19c0,5.8,1.7,10.4,5.1,13.8c3.4,3.4,8,5.1,13.7,5.1
		s10.3-1.7,13.7-5.1c3.4-3.4,5.1-8.1,5.1-13.8c0-5.8-1.7-10.4-5.1-13.8C55,1.7,50.4,0,44.8,0z M38.1,10.3c1.6-2,3.8-3.1,6.6-3.1
		c2.8,0,5,1,6.6,3.1c1.6,2.1,2.4,5,2.4,8.7c0,3.7-0.8,6.6-2.4,8.7c-1.6,2-3.8,3.1-6.6,3.1s-5.1-1-6.6-3.1c-1.6-2.1-2.4-5-2.4-8.7
		C35.7,15.3,36.5,12.3,38.1,10.3z"/>
	<path d="M97,24.2c0,0.2-0.1,0.5-0.1,0.8c0-0.3-0.1-0.5-0.1-0.8L91.9,1.1l0-0.2h-8.6l-4.8,23.4c-0.1,0.3-0.1,0.5-0.1,0.8
		c0-0.3-0.1-0.5-0.1-0.8L73.8,1.1l0-0.2H65L73.3,37h9.5l4.7-24.4c0-0.2,0.1-0.3,0.1-0.5c0,0.2,0,0.3,0.1,0.5l4.7,24.2l0,0.2h9.5
		l8.2-35.8l0.1-0.3h-8.8L97,24.2z"/>
	<path d="M149.6,23.4c-0.4,2.2-1.2,4-2.5,5.2c-1.3,1.2-2.9,1.9-4.9,1.9c-2.8,0-5-1-6.6-3.1c-1.6-2.1-2.4-4.9-2.4-8.4
		c0-3.6,0.8-6.4,2.3-8.5c1.5-2,3.7-3.1,6.4-3.1c2.1,0,3.9,0.6,5.1,1.9c1.3,1.3,2.1,3.1,2.3,5.3l0,0.3l9.6-1.6l0-0.3
		c-0.5-4-2.3-7.2-5.2-9.5c-3-2.3-6.9-3.5-11.6-3.5c-5.7,0-10.3,1.8-13.6,5.2c-3.3,3.4-5,8.1-5,13.8c0,5.8,1.6,10.4,4.8,13.8
		c3.2,3.4,7.8,5.1,13.7,5.1c4.6,0,8.4-1.1,11.3-3.3c2.9-2.2,4.9-5.3,5.8-9.2l0.1-0.3l-9.6-2L149.6,23.4z"/>
	<polygon points="173.7,0.9 164.2,0.9 164.2,37 188.9,37 188.9,29.6 173.7,29.6 	"/>
	<path d="M205.9,0.9l-13.7,35.8L192,37h9.5l2.9-8.3h13.4l2.9,8.3h9.6L216.5,0.9H205.9z M211.1,8.6c0.3,1.1,0.7,2.5,1.2,4l3.3,9.6
		h-8.9l3.3-9.6C210.5,11.1,210.9,9.8,211.1,8.6z"/>
	<path d="M243.5,7.8c1-0.6,2.3-0.9,4-0.9c2,0,3.9,0.5,5.5,1.4c1.6,0.9,2.8,2.2,3.7,3.9l0.2,0.3l6.1-5l-0.1-0.2
		c-1.3-2.4-3.3-4.2-5.9-5.4c-2.6-1.2-5.6-1.8-9-1.8c-4.5,0-8,1-10.7,2.9c-2.6,1.9-4,4.6-4,8c0,5.8,3.5,9.5,10.4,11l4.9,1
		c1.9,0.4,3.2,0.9,4,1.5c0.7,0.6,1.1,1.4,1.1,2.7c0,1.2-0.5,2.2-1.6,2.8c-1.1,0.7-2.6,1-4.4,1c-4.4,0-7.7-2-9.7-6l-0.1-0.3l-6.9,4.7
		l0.1,0.2c1.3,2.6,3.4,4.7,6.3,6.2c2.8,1.5,6.2,2.2,10.1,2.2c4.8,0,8.5-1.1,11.2-3.2c2.7-2.1,4.1-5,4.1-8.5c0-3-0.9-5.4-2.6-7.2
		c-1.7-1.7-4.3-2.9-7.7-3.7l-5.3-1.1c-1.9-0.4-3.2-1-4-1.6c-0.7-0.6-1.1-1.4-1.1-2.5C242.1,9.2,242.5,8.4,243.5,7.8z"/>
	<path d="M277.9,7.8c1-0.6,2.3-0.9,4-0.9c2,0,3.9,0.5,5.5,1.4c1.6,0.9,2.8,2.2,3.7,3.9l0.2,0.3l6.1-5l-0.1-0.2
		C296,4.8,294,3,291.4,1.8c-2.6-1.2-5.6-1.8-9-1.8c-4.5,0-8,1-10.7,2.9c-2.6,1.9-4,4.6-4,8c0,5.8,3.5,9.5,10.4,11l4.9,1
		c1.9,0.4,3.2,0.9,4,1.5c0.7,0.6,1.1,1.4,1.1,2.7c0,1.2-0.5,2.2-1.6,2.8c-1.1,0.7-2.6,1-4.4,1c-4.4,0-7.7-2-9.7-6l-0.1-0.3l-6.9,4.7
		l0.1,0.2c1.3,2.6,3.4,4.7,6.3,6.2c2.8,1.5,6.2,2.2,10.1,2.2c4.8,0,8.5-1.1,11.2-3.2c2.7-2.1,4.1-5,4.1-8.5c0-3-0.9-5.4-2.6-7.2
		c-1.7-1.7-4.3-2.9-7.7-3.7l-5.3-1.1c-1.9-0.4-3.2-1-4-1.6c-0.7-0.6-1.1-1.4-1.1-2.5C276.5,9.2,276.9,8.4,277.9,7.8z"/>
	<rect x="302.1" y="0.9" width="9.5" height="36.2"/>
	<path d="M342.9,23.1l0,0.3c-0.4,2.2-1.2,4-2.5,5.2c-1.3,1.2-2.9,1.9-4.9,1.9c-2.8,0-5-1-6.6-3.1c-1.6-2.1-2.4-4.9-2.4-8.4
		c0-3.6,0.8-6.4,2.3-8.5c1.5-2,3.7-3.1,6.4-3.1c2.1,0,3.9,0.6,5.1,1.9c1.3,1.3,2.1,3.1,2.3,5.3l0,0.3l9.6-1.6l0-0.3
		c-0.5-4-2.3-7.2-5.2-9.5c-3-2.3-6.9-3.5-11.6-3.5c-5.7,0-10.3,1.8-13.6,5.2c-3.3,3.4-5,8.1-5,13.8c0,5.8,1.6,10.4,4.8,13.8
		c3.2,3.4,7.8,5.1,13.7,5.1c4.6,0,8.4-1.1,11.3-3.3c2.9-2.2,4.9-5.3,5.8-9.2l0.1-0.3L342.9,23.1z"/>
</g>
</svg>
