<svg xmlns="http://www.w3.org/2000/svg" xmlns:xlink="http://www.w3.org/1999/xlink" version="1.1" x="0px" y="0px" viewBox="0 0 100 100" enable-background="new 0 0 100 100" xml:space="preserve"><path d="M76.1,26.9c0-0.3-0.3-0.6-0.7-0.6H63.7v-3.3c0-7.1-5.8-12.9-12.9-12.9s-12.9,5.8-12.9,12.9v3.3H26.2c-0.3,0-0.6,0.3-0.7,0.6  l-4.2,61.8c0,0.2,0.1,0.4,0.2,0.5c0.1,0.1,0.3,0.2,0.5,0.2h57c0.2,0,0.4-0.1,0.5-0.2c0.1-0.1,0.2-0.3,0.2-0.5L76.1,26.9z M39.1,22.9  c0-6.4,5.2-11.6,11.6-11.6s11.6,5.2,11.6,11.6v3.3H39.1V22.9z M22.7,88l4.1-60.4h11V31c0,0.4,0.3,0.7,0.7,0.7c0.4,0,0.7-0.3,0.7-0.7  v-3.5h23.3V31c0,0.4,0.3,0.7,0.7,0.7s0.7-0.3,0.7-0.7v-3.5h11.1L78.3,88H22.7z"></path></svg>