<svg width="24" height="24" viewBox="0 0 24 24" fill="none" xmlns="http://www.w3.org/2000/svg">
<g clip-path="url(#clip0)">
<path d="M19.3478 10.4455C18.8522 10.4455 18.5217 10.7727 18.5217 11.2636V12C18.5217 16.0909 15.2174 19.3636 11.087 19.3636C6.95652 19.3636 3.65217 16.0909 3.65217 12C3.65217 7.90909 6.95652 4.63636 11.087 4.63636C12.1609 4.63636 13.1522 4.88182 14.1435 5.29091C14.5565 5.45455 15.0522 5.29091 15.2174 4.88182C15.3826 4.47273 15.2174 3.98182 14.8043 3.81818C13.6478 3.32727 12.4087 3 11.087 3C6.04783 3 2 7.00909 2 12C2 16.9909 6.04783 21 11.087 21C16.1261 21 20.1739 16.9909 20.1739 12V11.2636C20.1739 10.7727 19.8435 10.4455 19.3478 10.4455Z" fill="black"/>
<path d="M20.7528 4.06381C20.4223 3.73654 19.9267 3.73654 19.5962 4.06381L11.0875 12.4911L9.18755 10.6093C8.85712 10.282 8.36146 10.282 8.03103 10.6093C7.70059 10.9365 7.70059 11.4275 8.03103 11.7547L10.5093 14.2093C10.6745 14.3729 10.9223 14.4547 11.0875 14.4547C11.2528 14.4547 11.5006 14.3729 11.6658 14.2093L20.7528 5.20927C21.0832 4.882 21.0832 4.39109 20.7528 4.06381Z" fill="black"/>
</g>
<defs>
<clipPath id="clip0">
<rect width="19" height="18" fill="white" transform="translate(2 3)"/>
</clipPath>
</defs>
</svg>
